<svg xmlns="http://www.w3.org/2000/svg" width="1010" height="1073" viewBox="0 0 1010 1073" version="1.1">
	<path d="M 956 115.500 C 956 125.833, 955.626 132, 955 132 C 954.450 132, 954 134.475, 954 137.500 C 954 141.722, 953.652 143, 952.500 143 C 951.417 143, 951 144.111, 951 147 C 951 149.200, 950.550 151, 950 151 C 949.450 151, 949 153.025, 949 155.500 C 949 158.833, 948.611 160, 947.500 160 C 946.567 160, 946 160.944, 946 162.500 C 946 163.875, 945.550 165, 945 165 C 944.450 165, 944 165.900, 944 167 C 944 168.100, 943.550 169, 943 169 C 942.450 169, 942 170.125, 942 171.500 C 942 173.056, 941.433 174, 940.500 174 C 939.567 174, 939 174.944, 939 176.500 C 939 177.875, 938.550 179, 938 179 C 937.450 179, 937 179.932, 937 181.071 C 937 183.285, 934.836 186, 933.071 186 C 932.482 186, 932 186.920, 932 188.045 C 932 190.174, 927.868 195, 926.045 195 C 925.470 195, 925 195.482, 925 196.071 C 925 197.456, 922.456 200, 921.071 200 C 920.482 200, 920 200.932, 920 202.071 C 920 204.724, 917.724 207, 915.071 207 C 913.932 207, 913 207.645, 913 208.433 C 913 209.221, 912.100 210.151, 911 210.500 C 909.900 210.849, 909 211.779, 909 212.567 C 909 213.429, 908.003 214, 906.500 214 C 904.944 214, 904 214.567, 904 215.500 C 904 216.433, 903.056 217, 901.500 217 C 900.125 217, 899 217.450, 899 218 C 899 218.550, 897.875 219, 896.500 219 C 895.125 219, 894 219.450, 894 220 C 894 220.550, 893.100 221, 892 221 C 890.889 221, 890 221.667, 890 222.500 C 890 223.433, 889.056 224, 887.500 224 C 886.125 224, 885 224.450, 885 225 C 885 225.550, 883.875 226, 882.500 226 C 880.944 226, 880 226.567, 880 227.500 C 880 228.333, 879.111 229, 878 229 C 876.900 229, 876 229.450, 876 230 C 876 230.550, 874.200 231, 872 231 C 869.800 231, 868 231.450, 868 232 C 868 232.550, 867.100 233, 866 233 C 864.900 233, 864 233.617, 864 234.371 C 864 235.304, 862.085 235.958, 858 236.420 C 853.737 236.903, 852 237.519, 852 238.550 C 852 239.430, 851.018 240, 849.500 240 C 847.944 240, 847 240.567, 847 241.500 C 847 242.500, 846 243, 844 243 C 842.350 243, 841 243.450, 841 244 C 841 244.550, 839.650 245, 838 245 C 836.350 245, 835 245.450, 835 246 C 835 246.550, 833.425 247, 831.500 247 C 829.056 247, 828 247.452, 828 248.500 C 828 249.541, 826.954 250, 824.583 250 C 822.704 250, 820.904 250.562, 820.583 251.250 C 820.117 252.250, 819.883 252.250, 819.417 251.250 C 818.723 249.764, 816 249.565, 816 251 C 816 251.550, 813.525 252, 810.500 252 C 806.278 252, 805 252.348, 805 253.500 C 805 254.622, 803.803 255.001, 800.250 255.005 C 787.933 255.019, 776 256.320, 776 257.651 C 776 258.714, 773.243 259, 763 259 C 752.111 259, 750 259.244, 750 260.500 C 750 261.333, 749.111 262, 748 262 C 746.889 262, 746 261.333, 746 260.500 C 746 259.675, 745.325 259, 744.500 259 C 743.675 259, 743 259.675, 743 260.500 C 743 262.671, 738.264 262.448, 737.689 260.250 C 737.254 258.583, 737.226 258.583, 737.116 260.250 C 736.958 262.629, 727 262.875, 727 260.500 C 727 259.196, 722.556 259, 693 259 C 663.444 259, 659 258.804, 659 257.500 C 659 256.311, 657.565 256, 652.082 256 C 643.562 256, 642 255.441, 642 252.393 C 642 251.077, 641.550 250, 641 250 C 640.450 250, 640 249.325, 640 248.500 C 640 247.675, 639.325 247, 638.500 247 C 637.667 247, 637 246.111, 637 245 C 637 243.900, 636.361 243, 635.579 243 C 634.798 243, 633.862 241.650, 633.500 240 C 633.138 238.350, 632.202 237, 631.421 237 C 630.639 237, 630 236.100, 630 235 C 630 233.900, 629.530 233, 628.955 233 C 627.597 233, 623 228.403, 623 227.045 C 623 226.470, 622.518 226, 621.929 226 C 620.164 226, 618 223.285, 618 221.071 C 618 219.371, 617.374 219, 614.500 219 C 612.575 219, 611 219.450, 611 220 C 611 220.550, 611.675 221, 612.500 221 C 613.667 221, 614 222.333, 614 227 C 614 230.333, 614.444 233, 615 233 C 615.556 233, 616 235.667, 616 239 C 616 242.333, 616.444 245, 617 245 C 617.603 245, 618 249.167, 618 255.500 C 618 261.833, 618.397 266, 619 266 C 619.578 266, 620 269.167, 620 273.500 C 620 279.500, 620.300 281, 621.500 281 C 622.756 281, 623 283.111, 623 294 C 623 302, 623.385 307, 624 307 C 624.626 307, 625 313.167, 625 323.500 C 625 333.833, 624.626 340, 624 340 C 623.417 340, 623 343.333, 623 348 C 623 354.444, 622.708 356, 621.500 356 C 620.348 356, 620 357.278, 620 361.500 C 620 364.525, 619.550 367, 619 367 C 618.450 367, 618 368.800, 618 371 C 618 373.200, 617.550 375, 617 375 C 616.450 375, 616 377.475, 616 380.500 C 616 383.525, 615.550 386, 615 386 C 614.450 386, 614 387.575, 614 389.500 C 614 391.944, 613.548 393, 612.500 393 C 611.333 393, 611 394.333, 611 399 C 611 403.416, 610.638 405, 609.629 405 C 608.739 405, 608.025 406.754, 607.594 410 C 607.140 413.424, 606.469 415, 605.466 415 C 604.457 415, 604 416.092, 604 418.500 C 604 420.944, 603.548 422, 602.500 422 C 601.675 422, 601 422.863, 601 423.918 C 601 426.899, 599.922 429, 598.393 429 C 597.441 429, 597 430.232, 597 432.892 C 597 436.209, 596.631 436.876, 594.500 437.411 C 593.125 437.756, 592 438.500, 592 439.065 C 592 440.407, 587.393 445, 586.045 445 C 585.470 445, 585 445.675, 585 446.500 C 585 447.548, 583.944 448, 581.500 448 C 579.575 448, 578 448.450, 578 449 C 578 449.550, 577.325 450, 576.500 450 C 575.675 450, 575 449.550, 575 449 C 575 448.404, 571.191 448, 565.573 448 C 557.436 448, 556.084 447.761, 555.689 446.250 C 555.254 444.583, 555.226 444.583, 555.116 446.250 C 555.014 447.786, 553.837 448, 545.500 448 C 539.833 448, 536 448.404, 536 449 C 536 449.550, 535.325 450, 534.500 450 C 533.675 450, 533 449.550, 533 449 C 533 448.450, 532.325 448, 531.500 448 C 530.675 448, 530 448.450, 530 449 C 530 449.550, 528.425 450, 526.500 450 C 524.056 450, 523 450.452, 523 451.500 C 523 452.500, 522 453, 520 453 C 518.350 453, 517 453.450, 517 454 C 517 454.550, 515.875 455, 514.500 455 C 513.125 455, 512 455.450, 512 456 C 512 456.550, 510.875 457, 509.500 457 C 507.944 457, 507 457.567, 507 458.500 C 507 459.333, 506.111 460, 505 460 C 503.889 460, 503 460.667, 503 461.500 C 503 462.510, 501.990 463, 499.906 463 C 497.654 463, 496.671 463.544, 496.290 465 C 496.002 466.100, 495.244 467, 494.604 467 C 493.965 467, 492.793 467.900, 492 469 C 491.207 470.100, 489.983 471, 489.279 471 C 488.576 471, 488 472.125, 488 473.500 C 488 474.875, 487.550 476, 487 476 C 486.450 476, 486 476.482, 486 477.071 C 486 477.661, 485.357 478.786, 484.571 479.571 C 483.786 480.357, 482.661 481, 482.071 481 C 481.482 481, 481 482.125, 481 483.500 C 481 485.021, 480.430 486, 479.545 486 C 478.675 486, 477.827 487.405, 477.434 489.500 C 477.058 491.505, 476.184 493, 475.389 493 C 474.625 493, 474 493.900, 474 495 C 474 496.100, 473.377 497, 472.617 497 C 471.101 497, 470.035 499.968, 470.014 504.250 C 470.005 506.022, 469.466 507, 468.500 507 C 467.452 507, 467 508.056, 467 510.500 C 467 512.425, 466.550 514, 466 514 C 465.444 514, 465 516.667, 465 520 C 465 524.667, 464.667 526, 463.500 526 C 462.254 526, 462 527.944, 462 537.500 C 462 547.056, 462.254 549, 463.500 549 C 464.728 549, 465 550.722, 465 558.500 C 465 566.278, 464.728 568, 463.500 568 C 462.675 568, 462 568.470, 462 569.045 C 462 570.403, 457.403 575, 456.045 575 C 455.470 575, 455 575.675, 455 576.500 C 455 577.333, 454.111 578, 453 578 C 451.900 578, 451 578.450, 451 579 C 451 579.550, 449.699 580, 448.108 580 C 445.858 580, 445.078 580.554, 444.589 582.500 C 444.131 584.326, 443.293 585, 441.481 585 C 440.116 585, 439 585.450, 439 586 C 439 586.550, 437.875 587, 436.500 587 C 434.944 587, 434 587.567, 434 588.500 C 434 589.433, 433.056 590, 431.500 590 C 430.125 590, 429 590.450, 429 591 C 429 591.550, 427.425 592, 425.500 592 C 423.575 592, 422 592.450, 422 593 C 422 593.550, 419.975 594, 417.500 594 C 414.167 594, 413 594.389, 413 595.500 C 413 596.633, 411.778 597, 408 597 C 405.250 597, 403 597.450, 403 598 C 403 598.550, 402.100 599, 401 599 C 399.900 599, 399 599.450, 399 600 C 399 600.550, 396.750 601, 394 601 C 390.222 601, 389 601.367, 389 602.500 C 389 603.611, 387.833 604, 384.500 604 C 382.025 604, 380 604.450, 380 605 C 380 605.550, 377.750 606, 375 606 C 371.222 606, 370 606.367, 370 607.500 C 370 608.756, 367.889 609, 357 609 C 349 609, 344 609.385, 344 610 C 344 610.550, 343.100 611, 342 611 C 340.900 611, 340 610.550, 340 610 C 340 608.565, 337.277 608.764, 336.583 610.250 C 336.117 611.250, 335.883 611.250, 335.417 610.250 C 334.975 609.305, 329.372 609, 312.417 609 C 293.157 609, 290 608.789, 290 607.500 C 290 606.244, 287.889 606, 277 606 C 269 606, 264 605.615, 264 605 C 264 604.429, 261 604, 257 604 C 251.444 604, 250 603.690, 250 602.500 C 250 601.367, 248.778 601, 245 601 C 241.222 601, 240 601.367, 240 602.500 C 240 603.325, 240.675 604, 241.500 604 C 242.344 604, 243 604.894, 243 606.045 C 243 608.174, 247.132 613, 248.955 613 C 249.530 613, 250 613.675, 250 614.500 C 250 615.333, 250.889 616, 252 616 C 253.100 616, 254 616.450, 254 617 C 254 617.550, 254.482 618, 255.071 618 C 256.456 618, 259 620.544, 259 621.929 C 259 622.518, 259.675 623, 260.500 623 C 261.325 623, 262 623.450, 262 624 C 262 624.550, 262.900 625, 264 625 C 265.733 625, 266 625.667, 266 630 C 266 633.558, 266.394 635, 267.365 635 C 268.472 635, 268.819 639.923, 269.198 660.982 C 269.908 700.390, 269.064 734, 267.366 734 C 266.270 734, 266 737.067, 266 749.500 C 266 759.167, 265.624 765, 265 765 C 264.400 765, 264 769, 264 775 C 264 781, 263.600 785, 263 785 C 262.436 785, 262 787.833, 262 791.500 C 262 796.611, 261.679 798, 260.500 798 C 259.389 798, 259 799.167, 259 802.500 C 259 804.975, 258.550 807, 258 807 C 257.450 807, 257 809.250, 257 812 C 257 815.778, 256.633 817, 255.500 817 C 254.452 817, 254 818.056, 254 820.500 C 254 822.425, 253.550 824, 253 824 C 252.450 824, 252 825.350, 252 827 C 252 828.650, 251.550 830, 251 830 C 250.450 830, 250 831.575, 250 833.500 C 250 835.944, 249.548 837, 248.500 837 C 247.452 837, 247 838.056, 247 840.500 C 247 842.425, 246.550 844, 246 844 C 245.450 844, 245 845.800, 245 848 C 245 850.200, 244.550 852, 244 852 C 243.450 852, 243 852.900, 243 854 C 243 855.111, 242.333 856, 241.500 856 C 240.567 856, 240 856.944, 240 858.500 C 240 859.875, 239.550 861, 239 861 C 238.450 861, 238 862.800, 238 865 C 238 867.200, 237.550 869, 237 869 C 236.450 869, 236 869.900, 236 871 C 236 872.100, 235.518 873, 234.929 873 C 232.898 873, 231 875.865, 231 878.929 C 231 880.992, 230.508 882, 229.500 882 C 228.605 882, 228 882.920, 228 884.279 C 228 885.533, 227.100 887.207, 226 888 C 224.826 888.847, 224 890.589, 224 892.221 C 224 894.025, 223.474 895, 222.500 895 C 221.675 895, 221 895.801, 221 896.779 C 221 897.758, 220.100 899.207, 219 900 C 217.900 900.793, 217 902.467, 217 903.721 C 217 905.360, 216.418 906, 214.929 906 C 212.715 906, 210 908.164, 210 909.929 C 210 910.518, 209.325 911, 208.500 911 C 207.675 911, 207 911.450, 207 912 C 207 912.550, 206.068 913, 204.929 913 C 202.968 913, 200 915.108, 200 916.500 C 200 917.757, 197.117 920, 195.500 920 C 193.645 920, 191 922.309, 191 923.929 C 191 924.518, 189.974 925, 188.721 925 C 187.467 925, 185.793 925.900, 185 927 C 183.996 928.393, 182.411 929, 179.779 929 C 177.087 929, 176 929.431, 176 930.500 C 176 931.333, 175.111 932, 174 932 C 172.900 932, 172 932.450, 172 933 C 172 933.550, 170.425 934, 168.500 934 C 166.056 934, 165 934.452, 165 935.500 C 165 936.548, 163.944 937, 161.500 937 C 159.575 937, 158 937.450, 158 938 C 158 938.550, 155.750 939, 153 939 C 150.250 939, 148 939.450, 148 940 C 148 940.596, 144.167 941, 138.500 941 C 130.722 941, 129 941.272, 129 942.500 C 129 943.738, 127.167 944, 118.500 944 C 112.725 944, 108 944.257, 108 944.571 C 108 945.553, 110.804 948, 111.929 948 C 112.518 948, 113 948.482, 113 949.071 C 113 950.691, 115.645 953, 117.500 953 C 119.355 953, 122 955.309, 122 956.929 C 122 957.518, 123.125 958, 124.500 958 C 125.875 958, 127 958.450, 127 959 C 127 959.550, 128.575 960, 130.500 960 C 132.944 960, 134 960.452, 134 961.500 C 134 962.433, 134.944 963, 136.500 963 C 137.875 963, 139 963.450, 139 964 C 139 964.550, 140.575 965, 142.500 965 C 144.425 965, 146 965.450, 146 966 C 146 966.550, 146.900 967, 148 967 C 149.111 967, 150 967.667, 150 968.500 C 150 969.583, 151.111 970, 154 970 C 156.200 970, 158 970.450, 158 971 C 158 971.550, 159.575 972, 161.500 972 C 163.425 972, 165 972.450, 165 973 C 165 973.550, 167.025 974, 169.500 974 C 172.833 974, 174 974.389, 174 975.500 C 174 976.716, 175.611 977, 182.500 977 C 187.500 977, 191 977.412, 191 978 C 191 978.626, 197.167 979, 207.500 979 C 217.833 979, 224 978.626, 224 978 C 224 977.404, 227.833 977, 233.500 977 C 241.278 977, 243 976.728, 243 975.500 C 243 974.389, 244.167 974, 247.500 974 C 249.975 974, 252 973.550, 252 973 C 252 972.450, 253.575 972, 255.500 972 C 257.425 972, 259 971.550, 259 971 C 259 970.450, 261.250 970, 264 970 C 267.778 970, 269 969.633, 269 968.500 C 269 967.667, 269.889 967, 271 967 C 272.100 967, 273 966.550, 273 966 C 273 965.450, 274.575 965, 276.500 965 C 278.425 965, 280 964.550, 280 964 C 280 963.450, 281.125 963, 282.500 963 C 284.056 963, 285 962.433, 285 961.500 C 285 960.452, 286.056 960, 288.500 960 C 290.425 960, 292 959.550, 292 959 C 292 958.450, 292.900 958, 294 958 C 295.111 958, 296 957.333, 296 956.500 C 296 955.417, 297.111 955, 300 955 C 302.200 955, 304 954.550, 304 954 C 304 953.450, 304.932 953, 306.071 953 C 308.285 953, 311 950.836, 311 949.071 C 311 948.482, 312.026 948, 313.279 948 C 314.533 948, 316.207 947.100, 317 946 C 317.793 944.900, 319.242 944, 320.221 944 C 321.199 944, 322 943.325, 322 942.500 C 322 941.560, 322.949 941, 324.545 941 C 327.067 941, 332 937.059, 332 935.045 C 332 934.470, 332.675 934, 333.500 934 C 334.325 934, 335 933.550, 335 933 C 335 932.450, 336.125 932, 337.500 932 C 338.875 932, 340 931.530, 340 930.955 C 340 929.656, 344.571 925, 345.846 925 C 346.362 925, 347.066 923.875, 347.411 922.500 C 347.756 921.125, 348.705 920, 349.519 920 C 350.334 920, 351 919.550, 351 919 C 351 918.450, 351.675 918, 352.500 918 C 353.395 918, 354 917.080, 354 915.721 C 354 914.467, 354.900 912.793, 356 912 C 357.100 911.207, 358 909.983, 358 909.279 C 358 908.576, 358.576 908, 359.279 908 C 359.983 908, 361.207 907.100, 362 906 C 362.793 904.900, 364.017 904, 364.721 904 C 365.424 904, 366 903.424, 366 902.721 C 366 902.017, 366.900 900.793, 368 900 C 369.100 899.207, 370 898.003, 370 897.325 C 370 896.646, 371.575 895.795, 373.500 895.434 C 375.505 895.058, 377 894.184, 377 893.389 C 377 892.625, 377.675 892, 378.500 892 C 379.325 892, 380 891.325, 380 890.500 C 380 889.389, 381.167 889, 384.500 889 C 386.975 889, 389 888.550, 389 888 C 389 887.450, 390.125 887, 391.500 887 C 392.875 887, 394 887.450, 394 888 C 394 888.550, 396.025 889, 398.500 889 C 400.975 889, 403 888.550, 403 888 C 403 887.450, 405.250 887, 408 887 C 410.750 887, 413 886.550, 413 886 C 413 885.436, 415.833 885, 419.500 885 C 424.611 885, 426 884.679, 426 883.500 C 426 882.300, 427.500 882, 433.500 882 C 437.833 882, 441 881.578, 441 881 C 441 880.429, 444 880, 448 880 C 452 880, 455 879.571, 455 879 C 455 877.565, 457.723 877.764, 458.417 879.250 C 458.883 880.250, 459.117 880.250, 459.583 879.250 C 459.968 878.427, 462.528 878, 467.083 878 C 472.565 878, 474 877.689, 474 876.500 C 474 875.217, 476.889 875, 494 875 C 506.667 875, 514 874.633, 514 874 C 514 873.450, 516.025 873, 518.500 873 C 521.833 873, 523 872.611, 523 871.500 C 523 870.675, 523.675 870, 524.500 870 C 525.611 870, 526 868.833, 526 865.500 C 526 862.167, 526.389 861, 527.500 861 C 528.325 861, 529 860.550, 529 860 C 529 859.450, 528.325 859, 527.500 859 C 526.675 859, 526 858.325, 526 857.500 C 526 856.675, 526.675 856, 527.500 856 C 528.767 856, 529 853.667, 529 841 C 529 828.333, 528.767 826, 527.500 826 C 526.258 826, 526 824.111, 526 815 C 526 806.314, 525.710 804, 524.620 804 C 523.568 804, 523.069 801.264, 522.521 792.500 C 521.968 783.646, 521.480 781, 520.401 781 C 519.573 781, 519 779.977, 519 778.500 C 519 777.125, 518.550 776, 518 776 C 517.450 776, 517 773.750, 517 771 C 517 767.222, 516.633 766, 515.500 766 C 514.452 766, 514 764.944, 514 762.500 C 514 760.575, 513.550 759, 513 759 C 512.450 759, 512 757.650, 512 756 C 512 754.350, 511.550 753, 511 753 C 509.565 753, 509.764 750.277, 511.250 749.583 C 512.250 749.117, 512.250 748.883, 511.250 748.417 C 510.563 748.096, 510 746.746, 510 745.417 C 510 743.935, 509.420 743, 508.500 743 C 507.389 743, 507 741.833, 507 738.500 C 507 735.384, 506.584 734, 505.647 734 C 504.236 734, 503 724.352, 503 713.349 C 503 709.261, 502.646 708, 501.500 708 C 500.310 708, 500 706.556, 500 701 C 500 695.444, 500.310 694, 501.500 694 C 502.737 694, 503 692.183, 503 683.651 C 503 667.997, 504.032 658, 505.647 658 C 506.391 658, 507 657.550, 507 657 C 507 656.450, 507.675 656, 508.500 656 C 509.395 656, 510 655.080, 510 653.721 C 510 652.467, 510.900 650.793, 512 650 C 513.100 649.207, 514 647.983, 514 647.279 C 514 646.576, 514.576 646, 515.279 646 C 515.983 646, 517.207 645.100, 518 644 C 518.793 642.900, 519.968 642, 520.612 642 C 521.256 642, 522.066 640.875, 522.411 639.500 C 522.756 638.125, 523.705 637, 524.519 637 C 525.334 637, 526 636.550, 526 636 C 526 635.450, 526.675 635, 527.500 635 C 528.325 635, 529 634.325, 529 633.500 C 529 632.667, 529.889 632, 531 632 C 532.100 632, 533 631.550, 533 631 C 533 630.385, 538 630, 546 630 C 556.889 630, 559 629.756, 559 628.500 C 559 627.292, 560.556 627, 567 627 C 571.667 627, 575 626.583, 575 626 C 575 625.450, 576.575 625, 578.500 625 C 580.425 625, 582 624.550, 582 624 C 582 623.450, 583.800 623, 586 623 C 588.889 623, 590 622.583, 590 621.500 C 590 620.667, 590.889 620, 592 620 C 593.100 620, 594 619.550, 594 619 C 594 618.450, 595.575 618, 597.500 618 C 599.425 618, 601 617.550, 601 617 C 601 616.450, 602.301 616, 603.892 616 C 606.142 616, 606.922 615.446, 607.411 613.500 C 607.756 612.125, 608.705 611, 609.519 611 C 610.334 611, 611 610.550, 611 610 C 611 609.450, 612.125 609, 613.500 609 C 615.500 609, 616 608.500, 616 606.500 C 616 605.125, 616.450 604, 617 604 C 617.550 604, 618 603.518, 618 602.929 C 618 601.763, 620.462 599, 621.500 599 C 622.538 599, 625 596.237, 625 595.071 C 625 594.482, 625.450 594, 626 594 C 626.550 594, 627 593.100, 627 592 C 627 590.889, 627.667 590, 628.500 590 C 629.325 590, 630 589.325, 630 588.500 C 630 587.675, 630.675 587, 631.500 587 C 632.491 587, 633 586.009, 633 584.082 C 633 580.155, 633.924 578, 635.607 578 C 636.426 578, 637 576.970, 637 575.500 C 637 573.944, 637.567 573, 638.500 573 C 639.433 573, 640 572.056, 640 570.500 C 640 569.125, 640.450 568, 641 568 C 641.571 568, 642 565, 642 561 C 642 557, 642.429 554, 643 554 C 643.603 554, 644 549.861, 644 543.583 C 644 536.228, 644.367 532.995, 645.250 532.583 C 646.250 532.117, 646.250 531.883, 645.250 531.417 C 643.773 530.727, 643.543 523, 645 523 C 645.550 523, 646 521.425, 646 519.500 C 646 517.575, 646.470 516, 647.045 516 C 648.403 516, 653 511.403, 653 510.045 C 653 509.470, 653.675 509, 654.500 509 C 655.325 509, 656 508.550, 656 508 C 656 507.450, 656.666 507, 657.481 507 C 658.295 507, 659.244 505.875, 659.589 504.500 C 660.078 502.554, 660.858 502, 663.108 502 C 664.699 502, 666 501.550, 666 501 C 666 500.450, 668.475 500, 671.500 500 C 675.722 500, 677 499.652, 677 498.500 C 677 497.231, 679.389 497, 692.500 497 C 702.167 497, 708 496.624, 708 496 C 708 495.450, 708.675 495, 709.500 495 C 710.325 495, 711 495.450, 711 496 C 711 496.550, 711.900 497, 713 497 C 714.100 497, 715 496.550, 715 496 C 715 495.450, 715.675 495, 716.500 495 C 717.325 495, 718 495.450, 718 496 C 718 496.600, 722 497, 728 497 C 736.222 497, 738 497.267, 738 498.500 C 738 499.728, 739.722 500, 747.500 500 C 753.167 500, 757 500.404, 757 501 C 757 501.550, 757.675 502, 758.500 502 C 759.325 502, 760 501.550, 760 501 C 760 500.450, 760.675 500, 761.500 500 C 762.325 500, 763 500.450, 763 501 C 763 501.593, 766.667 502, 772 502 C 779.333 502, 781 502.278, 781 503.500 C 781 504.728, 782.722 505, 790.500 505 C 796.167 505, 800 505.404, 800 506 C 800 506.556, 802.667 507, 806 507 C 809.333 507, 812 507.444, 812 508 C 812 508.609, 816.500 509, 823.500 509 C 833.056 509, 835 509.254, 835 510.500 C 835 511.742, 836.889 512, 846 512 C 852.667 512, 857 512.394, 857 513 C 857 513.596, 860.833 514, 866.500 514 C 872.167 514, 876 514.404, 876 515 C 876 515.550, 878.025 516, 880.500 516 L 885 516 885 505.500 C 885 499.167, 885.397 495, 886 495 C 886.596 495, 887 491.167, 887 485.500 C 887 477.722, 887.272 476, 888.500 476 C 889.728 476, 890 474.278, 890 466.500 C 890 460.833, 890.404 457, 891 457 C 891.571 457, 892 454, 892 450 C 892 446, 892.429 443, 893 443 C 893.583 443, 894 439.667, 894 435 C 894 428.556, 894.292 427, 895.500 427 C 896.728 427, 897 425.278, 897 417.500 C 897 411.833, 897.404 408, 898 408 C 898.550 408, 899 405.750, 899 403 C 899 399.222, 899.367 398, 900.500 398 C 901.325 398, 902 397.550, 902 397 C 902 396.450, 901.325 396, 900.500 396 C 899.675 396, 899 395.325, 899 394.500 C 899 393.675, 899.675 393, 900.500 393 C 901.652 393, 902 391.722, 902 387.500 C 902 384.475, 902.450 382, 903 382 C 903.550 382, 904 380.425, 904 378.500 C 904 376.575, 904.450 375, 905 375 C 905.550 375, 906 373.875, 906 372.500 C 906 370.944, 906.567 370, 907.500 370 C 908.333 370, 909 369.111, 909 368 C 909 366.900, 909.450 366, 910 366 C 910.550 366, 911 365.325, 911 364.500 C 911 363.675, 911.450 363, 912 363 C 912.550 363, 913 362.100, 913 361 C 913 359.889, 913.667 359, 914.500 359 C 915.325 359, 916 358.325, 916 357.500 C 916 356.675, 916.450 356, 917 356 C 917.550 356, 918 355.325, 918 354.500 C 918 353.675, 918.450 353, 919 353 C 919.550 353, 920 352.100, 920 351 C 920 349.900, 920.482 349, 921.071 349 C 922.456 349, 925 346.456, 925 345.071 C 925 344.482, 925.675 344, 926.500 344 C 927.325 344, 928 343.353, 928 342.561 C 928 341.623, 929.565 340.888, 932.500 340.448 C 935.345 340.021, 937 339.263, 937 338.386 C 937 337.624, 937.450 337, 938 337 C 938.550 337, 939 336.100, 939 335 C 939 333.889, 939.667 333, 940.500 333 C 941.325 333, 942 332.325, 942 331.500 C 942 330.675, 942.450 330, 943 330 C 943.550 330, 944 329.518, 944 328.929 C 944 327.544, 946.544 325, 947.929 325 C 948.518 325, 949 324.100, 949 323 C 949 321.900, 949.450 321, 950 321 C 950.550 321, 951 320.325, 951 319.500 C 951 318.675, 951.675 318, 952.500 318 C 953.325 318, 954 317.325, 954 316.500 C 954 315.675, 954.450 315, 955 315 C 955.550 315, 956 314.100, 956 313 C 956 311.900, 956.450 311, 957 311 C 957.550 311, 958 310.325, 958 309.500 C 958 308.675, 958.675 308, 959.500 308 C 960.333 308, 961 307.111, 961 306 C 961 304.900, 961.450 304, 962 304 C 962.550 304, 963 302.875, 963 301.500 C 963 300.125, 963.450 299, 964 299 C 964.550 299, 965 298.100, 965 297 C 965 295.889, 965.667 295, 966.500 295 C 967.325 295, 968 294.325, 968 293.500 C 968 292.675, 968.450 292, 969 292 C 969.550 292, 970 291.100, 970 290 C 970 288.900, 970.450 288, 971 288 C 971.550 288, 972 286.425, 972 284.500 C 972 282.056, 972.452 281, 973.500 281 C 974.433 281, 975 280.056, 975 278.500 C 975 277.125, 975.450 276, 976 276 C 976.550 276, 977 273.750, 977 271 C 977 267.222, 977.367 266, 978.500 266 C 979.333 266, 980 265.111, 980 264 C 980 262.900, 980.450 262, 981 262 C 981.550 262, 982 260.425, 982 258.500 C 982 256.575, 982.450 255, 983 255 C 983.550 255, 984 253.200, 984 251 C 984 248.111, 984.417 247, 985.500 247 C 986.633 247, 987 245.778, 987 242 C 987 239.250, 987.450 237, 988 237 C 988.550 237, 989 234.525, 989 231.500 C 989 228.475, 989.450 226, 990 226 C 990.583 226, 991 222.667, 991 218 C 991 211.556, 991.292 210, 992.500 210 C 993.325 210, 994 209.325, 994 208.500 C 994 207.675, 993.325 207, 992.500 207 C 991.667 207, 991 206.111, 991 205 C 991 203.889, 991.667 203, 992.500 203 C 993.433 203, 994 202.056, 994 200.500 C 994 198.944, 993.433 198, 992.500 198 C 991.567 198, 991 197.056, 991 195.500 C 991 193.944, 991.567 193, 992.500 193 C 993.325 193, 994 192.550, 994 192 C 994 191.450, 993.325 191, 992.500 191 C 991.272 191, 991 189.278, 991 181.500 C 991 175.833, 990.596 172, 990 172 C 989.444 172, 989 169.333, 989 166 C 989 162.667, 988.556 160, 988 160 C 987.450 160, 987 157.975, 987 155.500 C 987 152.167, 986.611 151, 985.500 151 C 984.567 151, 984 150.056, 984 148.500 C 984 147.125, 983.550 146, 983 146 C 982.450 146, 982 143.750, 982 141 C 982 138.250, 981.550 136, 981 136 C 980.450 136, 980 135.100, 980 134 C 980 132.889, 979.333 132, 978.500 132 C 977.452 132, 977 130.944, 977 128.500 C 977 126.575, 976.550 125, 976 125 C 975.450 125, 975 123.875, 975 122.500 C 975 120.944, 974.433 120, 973.500 120 C 972.567 120, 972 119.056, 972 117.500 C 972 116.125, 971.550 115, 971 115 C 970.450 115, 970 113.875, 970 112.500 C 970 111.125, 969.550 110, 969 110 C 968.450 110, 968 109.100, 968 108 C 968 106.889, 967.333 106, 966.500 106 C 965.675 106, 965 105.530, 965 104.955 C 965 103.132, 960.174 99, 958.045 99 C 956.067 99, 956 99.544, 956 115.500 M 124 114 C 124 114.550, 124.675 115, 125.500 115 C 126.548 115, 127 116.056, 127 118.500 C 127 120.425, 127.450 122, 128 122 C 128.550 122, 129 123.125, 129 124.500 C 129 126.056, 129.567 127, 130.500 127 C 131.611 127, 132 128.167, 132 131.500 C 132 133.975, 132.450 136, 133 136 C 133.550 136, 134 136.675, 134 137.500 C 134 138.325, 134.450 139, 135 139 C 135.550 139, 136 139.900, 136 141 C 136 142.111, 136.667 143, 137.500 143 C 138.583 143, 139 144.111, 139 147 C 139 149.200, 139.450 151, 140 151 C 140.550 151, 141 151.900, 141 153 C 141 154.100, 141.450 155, 142 155 C 142.550 155, 143 156.575, 143 158.500 C 143 160.944, 143.452 162, 144.500 162 C 145.433 162, 146 162.944, 146 164.500 C 146 165.875, 146.450 167, 147 167 C 147.550 167, 148 168.125, 148 169.500 C 148 170.875, 148.450 172, 149 172 C 149.550 172, 150 173.575, 150 175.500 C 150 177.944, 150.452 179, 151.500 179 C 152.433 179, 153 179.944, 153 181.500 C 153 182.875, 153.450 184, 154 184 C 154.550 184, 155 185.575, 155 187.500 C 155 189.944, 155.452 191, 156.500 191 C 157.333 191, 158 191.889, 158 193 C 158 194.100, 158.450 195, 159 195 C 159.550 195, 160 196.125, 160 197.500 C 160 198.875, 160.450 200, 161 200 C 161.550 200, 162 201.575, 162 203.500 C 162 205.944, 162.452 207, 163.500 207 C 164.333 207, 165 207.889, 165 209 C 165 210.100, 165.450 211, 166 211 C 166.550 211, 167 212.800, 167 215 C 167 217.200, 167.450 219, 168 219 C 168.550 219, 169 220.125, 169 221.500 C 169 223.056, 169.567 224, 170.500 224 C 171.433 224, 172 224.944, 172 226.500 C 172 227.875, 172.450 229, 173 229 C 173.550 229, 174 229.900, 174 231 C 174 232.100, 174.450 233, 175 233 C 175.550 233, 176 233.900, 176 235 C 176 236.111, 176.667 237, 177.500 237 C 178.583 237, 179 238.111, 179 241 C 179 243.200, 179.450 245, 180 245 C 180.550 245, 181 246.125, 181 247.500 C 181 249.056, 181.567 250, 182.500 250 C 183.433 250, 184 250.944, 184 252.500 C 184 253.875, 184.450 255, 185 255 C 185.550 255, 186 256.575, 186 258.500 C 186 260.425, 186.450 262, 187 262 C 187.550 262, 188 262.900, 188 264 C 188 265.111, 188.667 266, 189.500 266 C 190.433 266, 191 266.944, 191 268.500 C 191 269.875, 191.450 271, 192 271 C 192.550 271, 193 272.575, 193 274.500 C 193 276.425, 193.450 278, 194 278 C 194.550 278, 195 278.900, 195 280 C 195 281.111, 195.667 282, 196.500 282 C 197.548 282, 198 283.056, 198 285.500 C 198 287.425, 198.450 289, 199 289 C 199.550 289, 200 290.350, 200 292 C 200 293.650, 200.450 295, 201 295 C 201.550 295, 202 295.900, 202 297 C 202 298.111, 202.667 299, 203.500 299 C 204.583 299, 205 300.111, 205 303 C 205 305.200, 205.450 307, 206 307 C 206.550 307, 207 307.900, 207 309 C 207 310.111, 207.667 311, 208.500 311 C 209.548 311, 210 312.056, 210 314.500 C 210 316.425, 210.450 318, 211 318 C 211.550 318, 212 318.675, 212 319.500 C 212 320.325, 212.450 321, 213 321 C 213.550 321, 214 321.900, 214 323 C 214 324.111, 214.667 325, 215.500 325 C 216.583 325, 217 326.111, 217 329 C 217 331.200, 217.450 333, 218 333 C 218.550 333, 219 333.900, 219 335 C 219 336.100, 219.450 337, 220 337 C 220.550 337, 221 337.900, 221 339 C 221 340.111, 221.667 341, 222.500 341 C 223.325 341, 224 341.675, 224 342.500 C 224 343.325, 224.450 344, 225 344 C 225.550 344, 226 344.482, 226 345.071 C 226 346.836, 228.715 349, 230.929 349 C 232.068 349, 233 349.450, 233 350 C 233 350.550, 233.675 351, 234.500 351 C 235.325 351, 236 351.450, 236 352 C 236 352.550, 236.900 353, 238 353 C 239.111 353, 240 353.667, 240 354.500 C 240 355.548, 241.056 356, 243.500 356 C 245.891 356, 247 356.459, 247 357.450 C 247 358.481, 248.737 359.097, 253 359.580 C 257.085 360.042, 259 360.696, 259 361.629 C 259 362.425, 260.049 363, 261.500 363 C 263.056 363, 264 363.567, 264 364.500 C 264 365.523, 265.033 366.003, 267.250 366.011 C 273.146 366.031, 278 367.214, 278 368.631 C 278 369.529, 279.204 370, 281.500 370 C 283.944 370, 285 370.452, 285 371.500 C 285 372.433, 285.944 373, 287.500 373 C 288.875 373, 290 373.450, 290 374 C 290 374.550, 292.025 375, 294.500 375 C 296.975 375, 299 375.450, 299 376 C 299 376.550, 300.125 377, 301.500 377 C 302.875 377, 304 377.450, 304 378 C 304 378.550, 305.575 379, 307.500 379 C 309.944 379, 311 379.452, 311 380.500 C 311 381.433, 311.944 382, 313.500 382 C 314.978 382, 316 382.573, 316 383.402 C 316 384.371, 317.851 385.018, 322 385.500 C 326.149 385.982, 328 386.629, 328 387.598 C 328 388.593, 329.307 389, 332.500 389 C 335.642 389, 337 389.413, 337 390.369 C 337 391.786, 341.854 392.969, 347.750 392.989 C 349.967 392.997, 351 393.477, 351 394.500 C 351 395.433, 351.944 396, 353.500 396 C 354.875 396, 356 396.450, 356 397 C 356 397.550, 357.575 398, 359.500 398 C 361.944 398, 363 398.452, 363 399.500 C 363 400.433, 363.944 401, 365.500 401 C 366.875 401, 368 401.450, 368 402 C 368 402.550, 369.350 403, 371 403 C 372.650 403, 374 403.450, 374 404 C 374 404.550, 375.350 405, 377 405 C 379 405, 380 405.500, 380 406.500 C 380 407.325, 380.450 408, 381 408 C 381.550 408, 382 408.666, 382 409.481 C 382 410.295, 383.125 411.244, 384.500 411.589 C 385.875 411.934, 387 412.843, 387 413.608 C 387 414.374, 387.450 415, 388 415 C 388.550 415, 389 415.626, 389 416.392 C 389 417.157, 390.125 418.066, 391.500 418.411 C 392.875 418.756, 394 419.512, 394 420.090 C 394 421.408, 396.533 424, 397.820 424 C 398.350 424, 399.066 425.125, 399.411 426.500 C 399.756 427.875, 400.705 429, 401.519 429 C 402.334 429, 403 429.450, 403 430 C 403 430.550, 403.675 431, 404.500 431 C 405.325 431, 406 431.675, 406 432.500 C 406 433.325, 406.450 434, 407 434 C 407.550 434, 408 434.666, 408 435.481 C 408 436.295, 409.125 437.244, 410.500 437.589 C 411.875 437.934, 413 438.650, 413 439.180 C 413 440.467, 415.592 443, 416.910 443 C 417.488 443, 418.244 444.125, 418.589 445.500 C 418.934 446.875, 419.843 448, 420.608 448 C 421.374 448, 422 448.450, 422 449 C 422 449.550, 422.626 450, 423.392 450 C 424.157 450, 425.066 451.125, 425.411 452.500 C 425.756 453.875, 426.705 455, 427.519 455 C 428.334 455, 429 455.450, 429 456 C 429 456.550, 429.675 457, 430.500 457 C 431.325 457, 432 457.675, 432 458.500 C 432 459.325, 432.450 460, 433 460 C 433.550 460, 434 460.666, 434 461.481 C 434 462.295, 435.125 463.244, 436.500 463.589 C 437.875 463.934, 439 464.650, 439 465.180 C 439 466.467, 441.592 469, 442.910 469 C 443.488 469, 444.244 470.125, 444.589 471.500 C 444.934 472.875, 445.843 474, 446.608 474 C 447.374 474, 448 474.450, 448 475 C 448 475.550, 448.642 476, 449.427 476 C 450.211 476, 451.059 476.788, 451.311 477.750 C 451.746 479.417, 451.774 479.417, 451.884 477.750 C 451.948 476.788, 452.675 476, 453.500 476 C 454.325 476, 455 475.550, 455 475 C 455 474.450, 455.675 474, 456.500 474 C 457.325 474, 458 473.530, 458 472.955 C 458 472.380, 459.105 470.805, 460.455 469.455 C 461.805 468.105, 463.380 467, 463.955 467 C 464.530 467, 465 466.334, 465 465.519 C 465 464.705, 466.098 463.762, 467.441 463.425 C 469.094 463.011, 470.088 461.874, 470.521 459.906 C 470.872 458.308, 471.798 457, 472.579 457 C 473.361 457, 474 456.550, 474 456 C 474 455.450, 474.666 455, 475.481 455 C 476.295 455, 477.244 453.875, 477.589 452.500 C 477.934 451.125, 478.843 450, 479.608 450 C 480.374 450, 481 449.550, 481 449 C 481 448.450, 481.675 448, 482.500 448 C 483.325 448, 484 447.530, 484 446.955 C 484 446.380, 485.105 444.805, 486.455 443.455 C 487.805 442.105, 489.380 441, 489.955 441 C 490.530 441, 491 440.100, 491 439 C 491 437.889, 490.333 437, 489.500 437 C 488.560 437, 488 436.051, 488 434.455 C 488 431.933, 484.059 427, 482.045 427 C 481.470 427, 481 426.325, 481 425.500 C 481 424.675, 480.334 424, 479.519 424 C 478.705 424, 477.762 422.902, 477.425 421.559 C 477.015 419.923, 475.876 418.912, 473.972 418.494 C 471.900 418.039, 470.963 417.107, 470.512 415.054 C 469.995 412.703, 469.243 412.135, 465.947 411.607 C 463.402 411.201, 462 410.448, 462 409.488 C 462 408.670, 461.550 408, 461 408 C 460.450 408, 460 407.518, 460 406.929 C 460 406.339, 459.357 405.214, 458.571 404.429 C 457.786 403.643, 456.661 403, 456.071 403 C 455.482 403, 455 402.550, 455 402 C 455 401.450, 454.374 401, 453.608 401 C 452.843 401, 451.934 399.875, 451.589 398.500 C 451.244 397.125, 450.295 396, 449.481 396 C 448.666 396, 448 395.377, 448 394.617 C 448 393.856, 447.100 392.998, 446 392.710 C 444.900 392.423, 444 391.470, 444 390.594 C 444 389.717, 443.325 389, 442.500 389 C 441.675 389, 441 388.334, 441 387.519 C 441 386.705, 439.875 385.756, 438.500 385.411 C 437.125 385.066, 436 384.157, 436 383.392 C 436 382.626, 435.550 382, 435 382 C 434.450 382, 434 381.518, 434 380.929 C 434 379.544, 431.456 377, 430.071 377 C 429.482 377, 429 376.550, 429 376 C 429 375.450, 428.334 375, 427.519 375 C 426.705 375, 425.756 373.875, 425.411 372.500 C 425.066 371.125, 424.157 370, 423.392 370 C 422.626 370, 422 369.377, 422 368.617 C 422 367.856, 421.100 366.998, 420 366.710 C 418.544 366.329, 418 365.346, 418 363.094 C 418 361.010, 417.510 360, 416.500 360 C 415.452 360, 415 358.944, 415 356.500 C 415 354.575, 414.550 353, 414 353 C 413.450 353, 413 352.100, 413 351 C 413 349.889, 412.333 349, 411.500 349 C 410.389 349, 410 347.833, 410 344.500 C 410 342.025, 409.550 340, 409 340 C 408.450 340, 408 338.650, 408 337 C 408 335.350, 407.550 334, 407 334 C 406.450 334, 406 332.425, 406 330.500 C 406 328.056, 405.548 327, 404.500 327 C 403.667 327, 403 326.111, 403 325 C 403 323.889, 402.333 323, 401.500 323 C 400.516 323, 400 322.016, 400 320.140 C 400 313.927, 398.713 308, 397.364 308 C 396.515 308, 396 306.867, 396 305 C 396 303.350, 395.550 302, 395 302 C 394.450 302, 394 300.912, 394 299.583 C 394 298.254, 393.438 296.904, 392.750 296.583 C 391.750 296.117, 391.750 295.883, 392.750 295.417 C 394.236 294.723, 394.435 292, 393 292 C 392.450 292, 392 291.100, 392 290 C 392 288.889, 391.333 288, 390.500 288 C 389.452 288, 389 286.944, 389 284.500 C 389 282.575, 388.550 281, 388 281 C 387.450 281, 387 279.875, 387 278.500 C 387 276.944, 386.433 276, 385.500 276 C 384.367 276, 384 274.778, 384 271 C 384 268.250, 383.550 266, 383 266 C 382.450 266, 382 265.100, 382 264 C 382 262.900, 381.550 262, 381 262 C 380.450 262, 380 260.425, 380 258.500 C 380 256.056, 379.548 255, 378.500 255 C 377.567 255, 377 254.056, 377 252.500 C 377 250.944, 376.433 250, 375.500 250 C 374.425 250, 374 248.903, 374 246.125 C 374 240.228, 372.904 236, 371.375 236 C 370.470 236, 370 234.803, 370 232.500 C 370 230.575, 369.550 229, 369 229 C 368.450 229, 368 227.200, 368 225 C 368 222.800, 367.550 221, 367 221 C 366.450 221, 366 220.100, 366 219 C 366 217.533, 365.333 217, 363.500 217 C 361.944 217, 361 216.433, 361 215.500 C 361 214.567, 360.056 214, 358.500 214 C 357.048 214, 356 213.425, 356 212.628 C 356 211.800, 354.413 211.002, 352 210.616 C 349.412 210.202, 348 209.451, 348 208.488 C 348 207.501, 346.989 207, 345 207 C 343.350 207, 342 206.550, 342 206 C 342 205.450, 340.875 205, 339.500 205 C 338.125 205, 337 204.550, 337 204 C 337 203.450, 335.425 203, 333.500 203 C 331.056 203, 330 202.548, 330 201.500 C 330 200.567, 329.056 200, 327.500 200 C 326.125 200, 325 199.550, 325 199 C 325 198.450, 324.100 198, 323 198 C 321.889 198, 321 197.333, 321 196.500 C 321 195.452, 319.944 195, 317.500 195 C 315.575 195, 314 194.550, 314 194 C 314 193.450, 312.875 193, 311.500 193 C 310.125 193, 309 192.550, 309 192 C 309 191.450, 307.875 191, 306.500 191 C 304.944 191, 304 190.433, 304 189.500 C 304 188.421, 302.896 188, 300.067 188 C 297.013 188, 295.993 187.553, 295.500 186 C 295.094 184.722, 293.987 184, 292.433 184 C 290.937 184, 290 183.422, 290 182.500 C 290 181.452, 288.944 181, 286.500 181 C 284.575 181, 283 180.550, 283 180 C 283 179.450, 281.875 179, 280.500 179 C 279.125 179, 278 178.550, 278 178 C 278 177.450, 276.200 177, 274 177 C 271.111 177, 270 176.583, 270 175.500 C 270 174.667, 269.111 174, 268 174 C 266.900 174, 266 173.550, 266 173 C 266 172.450, 265.100 172, 264 172 C 262.889 172, 262 171.333, 262 170.500 C 262 169.417, 260.889 169, 258 169 C 255.800 169, 254 168.550, 254 168 C 254 167.450, 253.100 167, 252 167 C 250.900 167, 250 166.550, 250 166 C 250 165.450, 248.875 165, 247.500 165 C 245.944 165, 245 164.433, 245 163.500 C 245 162.567, 244.056 162, 242.500 162 C 241.125 162, 240 161.550, 240 161 C 240 160.450, 239.100 160, 238 160 C 236.900 160, 236 159.550, 236 159 C 236 158.450, 234.200 158, 232 158 C 229.111 158, 228 157.583, 228 156.500 C 228 155.667, 227.111 155, 226 155 C 224.900 155, 224 154.550, 224 154 C 224 153.450, 222.875 153, 221.500 153 C 220.125 153, 219 152.550, 219 152 C 219 151.450, 217.425 151, 215.500 151 C 213.056 151, 212 150.548, 212 149.500 C 212 148.567, 211.056 148, 209.500 148 C 208.125 148, 207 147.550, 207 147 C 207 146.450, 205.425 146, 203.500 146 C 201.056 146, 200 145.548, 200 144.500 C 200 143.567, 199.056 143, 197.500 143 C 196.125 143, 195 142.550, 195 142 C 195 141.450, 194.100 141, 193 141 C 191.900 141, 191 140.550, 191 140 C 191 139.450, 189.875 139, 188.500 139 C 186.944 139, 186 138.433, 186 137.500 C 186 136.567, 185.056 136, 183.500 136 C 182.125 136, 181 135.550, 181 135 C 181 134.450, 179.875 134, 178.500 134 C 177.125 134, 176 133.550, 176 133 C 176 132.450, 174.425 132, 172.500 132 C 170.056 132, 169 131.548, 169 130.500 C 169 129.667, 168.111 129, 167 129 C 165.900 129, 165 128.550, 165 128 C 165 127.450, 163.425 127, 161.500 127 C 159.575 127, 158 126.550, 158 126 C 158 125.450, 156.875 125, 155.500 125 C 153.944 125, 153 124.433, 153 123.500 C 153 122.567, 152.056 122, 150.500 122 C 149.125 122, 148 121.550, 148 121 C 148 120.450, 146.425 120, 144.500 120 C 142.056 120, 141 119.548, 141 118.500 C 141 117.567, 140.056 117, 138.500 117 C 137.125 117, 136 116.550, 136 116 C 136 115.450, 134.425 115, 132.500 115 C 130.575 115, 129 114.550, 129 114 C 129 113.450, 127.875 113, 126.500 113 C 125.125 113, 124 113.450, 124 114 M 228 208.433 C 228 209.221, 227.100 210.151, 226 210.500 C 224.900 210.849, 224 211.779, 224 212.567 C 224 213.355, 223.325 214, 222.500 214 C 221.580 214, 221 214.935, 221 216.417 C 221 217.746, 220.438 219.096, 219.750 219.417 C 218.750 219.883, 218.750 220.117, 219.750 220.583 C 220.438 220.904, 221 222.254, 221 223.583 C 221 225.065, 221.580 226, 222.500 226 C 223.325 226, 224 226.470, 224 227.045 C 224 228.403, 228.597 233, 229.955 233 C 230.530 233, 231 233.666, 231 234.481 C 231 235.295, 232.125 236.244, 233.500 236.589 C 234.875 236.934, 236 237.843, 236 238.608 C 236 239.374, 236.450 240, 237 240 C 237.550 240, 238 240.482, 238 241.071 C 238 242.237, 240.462 245, 241.500 245 C 242.334 245, 245 247.666, 245 248.500 C 245 249.538, 247.763 252, 248.929 252 C 249.518 252, 250 252.645, 250 253.433 C 250 254.221, 250.900 255.151, 252 255.500 C 253.100 255.849, 254 256.779, 254 257.567 C 254 258.355, 254.675 259, 255.500 259 C 256.325 259, 257 259.666, 257 260.481 C 257 261.295, 258.125 262.244, 259.500 262.589 C 260.875 262.934, 262 263.843, 262 264.608 C 262 265.374, 262.450 266, 263 266 C 263.550 266, 264 266.482, 264 267.071 C 264 268.447, 266.541 271, 267.910 271 C 268.488 271, 269.244 272.125, 269.589 273.500 C 269.934 274.875, 270.843 276, 271.608 276 C 272.374 276, 273 276.450, 273 277 C 273 277.550, 273.675 278, 274.500 278 C 275.325 278, 276 278.645, 276 279.433 C 276 280.221, 276.900 281.151, 278 281.500 C 279.100 281.849, 280 282.779, 280 283.567 C 280 284.355, 280.675 285, 281.500 285 C 282.325 285, 283 285.666, 283 286.481 C 283 287.295, 284.125 288.244, 285.500 288.589 C 286.875 288.934, 288 289.843, 288 290.608 C 288 291.374, 288.450 292, 289 292 C 289.550 292, 290 292.482, 290 293.071 C 290 294.447, 292.541 297, 293.910 297 C 294.488 297, 295.244 298.125, 295.589 299.500 C 295.934 300.875, 296.843 302, 297.608 302 C 298.374 302, 299 302.450, 299 303 C 299 303.550, 300.125 304, 301.500 304 C 303.041 304, 304 304.568, 304 305.481 C 304 306.295, 305.125 307.244, 306.500 307.589 C 307.875 307.934, 309 308.843, 309 309.608 C 309 310.374, 309.450 311, 310 311 C 310.550 311, 311 311.626, 311 312.392 C 311 313.157, 312.125 314.066, 313.500 314.411 C 314.875 314.756, 316 315.705, 316 316.519 C 316 317.334, 316.450 318, 317 318 C 317.550 318, 318 318.675, 318 319.500 C 318 320.325, 318.645 321, 319.433 321 C 320.221 321, 321.151 321.900, 321.500 323 C 321.849 324.100, 322.779 325, 323.567 325 C 324.355 325, 325 325.450, 325 326 C 325 326.550, 325.675 327, 326.500 327 C 327.325 327, 328 327.675, 328 328.500 C 328 329.325, 328.450 330, 329 330 C 329.550 330, 330 330.666, 330 331.481 C 330 332.295, 331.125 333.244, 332.500 333.589 C 333.875 333.934, 335 334.843, 335 335.608 C 335 336.374, 335.450 337, 336 337 C 336.550 337, 337 337.675, 337 338.500 C 337 339.433, 337.944 340, 339.500 340 C 341.056 340, 342 339.433, 342 338.500 C 342 337.675, 342.450 337, 343 337 C 343.550 337, 344 336.325, 344 335.500 C 344 334.667, 344.889 334, 346 334 C 347.333 334, 348 333.333, 348 332 C 348 330.889, 348.667 330, 349.500 330 C 350.325 330, 351 329.325, 351 328.500 C 351 327.675, 351.675 327, 352.500 327 C 353.325 327, 354 326.550, 354 326 C 354 325.450, 353.325 325, 352.500 325 C 351.667 325, 351 324.111, 351 323 C 351 321.900, 350.361 321, 349.579 321 C 348.798 321, 347.872 319.692, 347.521 318.094 C 347.088 316.126, 346.094 314.989, 344.441 314.575 C 343.098 314.238, 342 313.295, 342 312.481 C 342 311.666, 341.550 311, 341 311 C 340.450 311, 340 310.374, 340 309.608 C 340 308.843, 338.875 307.934, 337.500 307.589 C 336.125 307.244, 335 306.295, 335 305.481 C 335 304.666, 334.518 304, 333.929 304 C 332.763 304, 330 301.538, 330 300.500 C 330 299.462, 327.237 297, 326.071 297 C 325.482 297, 325 296.550, 325 296 C 325 295.450, 324.361 295, 323.579 295 C 322.798 295, 321.872 293.692, 321.521 292.094 C 321.088 290.126, 320.094 288.989, 318.441 288.575 C 317.098 288.238, 316 287.295, 316 286.481 C 316 285.666, 315.550 285, 315 285 C 314.450 285, 314 284.374, 314 283.608 C 314 282.843, 312.875 281.934, 311.500 281.589 C 310.125 281.244, 309 280.295, 309 279.481 C 309 278.666, 308.518 278, 307.929 278 C 306.763 278, 304 275.538, 304 274.500 C 304 273.462, 301.237 271, 300.071 271 C 299.482 271, 299 270.550, 299 270 C 299 269.450, 298.361 269, 297.579 269 C 296.798 269, 295.872 267.692, 295.521 266.094 C 295.088 264.126, 294.094 262.989, 292.441 262.575 C 291.098 262.238, 290 261.295, 290 260.481 C 290 259.666, 289.550 259, 289 259 C 288.450 259, 288 258.383, 288 257.628 C 288 256.800, 286.413 256.002, 284 255.616 C 281.774 255.260, 280 254.414, 280 253.709 C 280 253.012, 279.100 251.793, 278 251 C 276.900 250.207, 276 248.983, 276 248.279 C 276 247.576, 275.325 247, 274.500 247 C 273.675 247, 273 246.550, 273 246 C 273 245.450, 272.334 245, 271.519 245 C 270.705 245, 269.756 243.875, 269.411 242.500 C 269.066 241.125, 268.157 240, 267.392 240 C 266.626 240, 266 239.355, 266 238.567 C 266 237.779, 265.100 236.849, 264 236.500 C 262.900 236.151, 262 235.221, 262 234.433 C 262 233.645, 261.424 233, 260.721 233 C 260.017 233, 258.793 232.100, 258 231 C 257.207 229.900, 255.983 229, 255.279 229 C 254.576 229, 254 228.424, 254 227.721 C 254 227.017, 253.100 225.793, 252 225 C 250.900 224.207, 250 222.983, 250 222.279 C 250 221.576, 249.530 221, 248.955 221 C 248.380 221, 246.805 219.895, 245.455 218.545 C 244.105 217.195, 243 215.620, 243 215.045 C 243 214.470, 242.325 214, 241.500 214 C 240.675 214, 240 213.373, 240 212.607 C 240 211.078, 237.899 210, 234.918 210 C 233.863 210, 233 209.325, 233 208.500 C 233 207.567, 232.056 207, 230.500 207 C 228.997 207, 228 207.571, 228 208.433 M 513.750 210.746 C 506.006 211.005, 504 211.374, 504 212.536 C 504 213.577, 502.845 214, 500 214 C 497.111 214, 496 214.417, 496 215.500 C 496 216.633, 494.778 217, 491 217 C 488.250 217, 486 217.450, 486 218 C 486 218.550, 484.875 219, 483.500 219 C 481.167 219, 481 219.333, 481 224 C 481 227.778, 481.367 229, 482.500 229 C 483.325 229, 484 229.450, 484 230 C 484 230.550, 483.325 231, 482.500 231 C 481.675 231, 481 231.450, 481 232 C 481 232.550, 478.750 233, 476 233 C 472.347 233, 471 233.383, 471 234.420 C 471 235.431, 469.123 236.042, 464.500 236.537 C 459.968 237.022, 458 237.652, 458 238.616 C 458 239.531, 456.813 240, 454.500 240 C 452.056 240, 451 240.452, 451 241.500 C 451 242.548, 449.944 243, 447.500 243 C 445.575 243, 444 243.450, 444 244 C 444 244.550, 442.875 245, 441.500 245 C 440.125 245, 439 245.450, 439 246 C 439 246.550, 437.425 247, 435.500 247 C 433.056 247, 432 247.452, 432 248.500 C 432 249.500, 431 250, 429 250 C 427.350 250, 426 250.450, 426 251 C 426 251.550, 425.100 252, 424 252 C 422.900 252, 422 252.647, 422 253.439 C 422 254.377, 420.435 255.112, 417.500 255.552 C 414.655 255.979, 413 256.737, 413 257.614 C 413 258.376, 412.325 259, 411.500 259 C 410.675 259, 410 259.675, 410 260.500 C 410 261.333, 409.111 262, 408 262 C 406.381 262, 406 262.667, 406 265.500 C 406 267.425, 406.450 269, 407 269 C 407.550 269, 408 270.575, 408 272.500 C 408 274.425, 408.450 276, 409 276 C 409.550 276, 410 277.125, 410 278.500 C 410 280.056, 410.567 281, 411.500 281 C 412.548 281, 413 282.056, 413 284.500 C 413 286.425, 413.450 288, 414 288 C 414.550 288, 415 288.900, 415 290 C 415 291.100, 415.617 292, 416.371 292 C 417.304 292, 417.958 293.915, 418.420 298 C 418.903 302.263, 419.519 304, 420.550 304 C 421.347 304, 422 304.900, 422 306 C 422 307.100, 422.623 308, 423.384 308 C 424.348 308, 424.978 309.968, 425.463 314.500 C 425.958 319.123, 426.569 321, 427.580 321 C 428.491 321, 429 322.075, 429 324 C 429 326, 429.500 327, 430.500 327 C 431.500 327, 432 328, 432 330 C 432 331.650, 432.450 333, 433 333 C 433.550 333, 434 334.527, 434 336.393 C 434 340.178, 435.192 341, 440.675 341 C 443.346 341, 444.312 340.521, 444.710 339 C 445.074 337.608, 446.074 337, 448 337 C 449.926 337, 450.926 336.392, 451.290 335 C 451.705 333.411, 452.654 333, 455.906 333 C 458.878 333, 460 332.589, 460 331.500 C 460 330.675, 460.450 330, 461 330 C 461.550 330, 462 329.325, 462 328.500 C 462 327.567, 462.944 327, 464.500 327 C 465.875 327, 467 326.550, 467 326 C 467 325.450, 467.900 325, 469 325 C 470.100 325, 471 324.550, 471 324 C 471 323.450, 472.575 323, 474.500 323 C 476.425 323, 478 322.550, 478 322 C 478 321.450, 479.800 321, 482 321 C 484.889 321, 486 320.583, 486 319.500 C 486 318.452, 487.056 318, 489.500 318 C 491.944 318, 493 317.548, 493 316.500 C 493 315.425, 494.097 315, 496.875 315 C 502.772 315, 507 313.904, 507 312.375 C 507 311.619, 507.675 311, 508.500 311 C 509.325 311, 510 311.675, 510 312.500 C 510 313.325, 510.450 314, 511 314 C 511.550 314, 512 313.325, 512 312.500 C 512 311.348, 513.278 311, 517.500 311 C 521.722 311, 523 310.652, 523 309.500 C 523 308.329, 524.482 307.967, 529.750 307.852 C 533.462 307.771, 537.175 307.612, 538 307.500 C 538.825 307.388, 550.862 307.229, 564.750 307.148 L 590 307 590 289 C 590 277.667, 589.630 271, 589 271 C 588.363 271, 588 262.833, 588 248.500 C 588 229.167, 587.789 226, 586.500 226 C 585.675 226, 585 225.550, 585 225 C 585 224.450, 585.675 224, 586.500 224 C 587.433 224, 588 223.056, 588 221.500 C 588 219.944, 587.433 219, 586.500 219 C 585.567 219, 585 218.056, 585 216.500 C 585 214.944, 585.567 214, 586.500 214 C 588.854 214, 588.253 211.301, 585.750 210.630 C 583.523 210.033, 532.555 210.115, 513.750 210.746 M 541.250 314.772 C 534.826 315.013, 533 315.404, 533 316.540 C 533 317.643, 531.654 318, 527.500 318 C 523.278 318, 522 318.348, 522 319.500 C 522 320.633, 520.778 321, 517 321 L 512 321 512 327 C 512 330.333, 512.444 333, 513 333 C 513.550 333, 514 335.475, 514 338.500 C 514 342.722, 514.348 344, 515.500 344 C 516.611 344, 517 345.167, 517 348.500 C 517 350.975, 517.450 353, 518 353 C 518.564 353, 519 355.833, 519 359.500 C 519 364.419, 519.342 366, 520.407 366 C 521.467 366, 521.989 368.340, 522.526 375.500 C 523.056 382.570, 523.591 385, 524.619 385 C 525.525 385, 526 386.179, 526 388.431 L 526 391.863 518 392.560 C 512.230 393.064, 510 393.640, 510 394.629 C 510 395.529, 508.798 396, 506.500 396 C 504.575 396, 503 396.450, 503 397 C 503 397.550, 501.650 398, 500 398 C 498 398, 497 398.500, 497 399.500 C 497 400.333, 496.111 401, 495 401 C 493.900 401, 493 401.450, 493 402 C 493 402.550, 491.425 403, 489.500 403 C 486.086 403, 486 403.098, 486 406.981 C 486 410.393, 486.357 411.052, 488.500 411.589 C 490.441 412.076, 491 412.859, 491 415.089 C 491 417.292, 491.563 418.103, 493.413 418.568 C 494.851 418.928, 496.072 420.149, 496.432 421.587 C 496.766 422.914, 497.705 424, 498.519 424 C 499.334 424, 500 424.675, 500 425.500 C 500 426.325, 500.675 427, 501.500 427 C 502.325 427, 503 427.450, 503 428 C 503 428.550, 505.025 429, 507.500 429 C 509.975 429, 512 428.550, 512 428 C 512 427.450, 514.217 427, 516.927 427 C 520.778 427, 521.953 426.618, 522.311 425.250 C 522.746 423.583, 522.774 423.583, 522.884 425.250 C 523.025 427.378, 526 427.616, 526 425.500 C 526 424.333, 527.333 424, 532 424 C 535.333 424, 538 423.556, 538 423 C 538 422.397, 542.167 422, 548.500 422 C 557.167 422, 559 421.738, 559 420.500 C 559 419.675, 559.675 419, 560.500 419 C 561.325 419, 562 419.675, 562 420.500 C 562 421.679, 563.389 422, 568.500 422 C 574.333 422, 575 421.795, 575 420 C 575 418.889, 575.667 418, 576.500 418 C 577.500 418, 578 417, 578 415 C 578 413.064, 578.508 412, 579.431 412 C 580.496 412, 581.041 409.949, 581.560 404 C 582.064 398.230, 582.640 396, 583.629 396 C 585.759 396, 585.242 393.297, 583 392.710 C 581.386 392.288, 581.001 391.350, 581.007 387.844 C 581.023 378.412, 582.266 370, 583.645 370 C 584.604 370, 585 368.541, 585 365 C 585 361.222, 585.367 360, 586.500 360 C 587.652 360, 588 358.722, 588 354.500 C 588 351.475, 588.450 349, 589 349 C 589.627 349, 590 342.667, 590 332 L 590 315 580.750 314.866 C 555.842 314.504, 548.864 314.488, 541.250 314.772 M 276 394.500 C 276 395.325, 275.325 396, 274.500 396 C 273.567 396, 273 396.944, 273 398.500 C 273 400.056, 272.433 401, 271.500 401 C 270.588 401, 270 401.931, 270 403.375 C 270 407.880, 268.746 412, 267.375 412 C 266.514 412, 266 413.121, 266 415 C 266 416.650, 265.550 418, 265 418 C 264.450 418, 264 419.350, 264 421 C 264 422.650, 263.550 424, 263 424 C 262.450 424, 262 425.125, 262 426.500 C 262 428.056, 261.433 429, 260.500 429 C 259.417 429, 259 430.111, 259 433 C 259 435.200, 258.550 437, 258 437 C 257.450 437, 257 437.900, 257 439 C 257 440.111, 256.333 441, 255.500 441 C 254.389 441, 254 442.167, 254 445.500 C 254 447.975, 253.550 450, 253 450 C 252.450 450, 252 452.250, 252 455 C 252 457.750, 251.550 460, 251 460 C 250.450 460, 250 461.575, 250 463.500 C 250 466.567, 249.690 467, 247.500 467 C 245.944 467, 245 466.433, 245 465.500 C 245 464.452, 243.944 464, 241.500 464 C 239.056 464, 238 464.452, 238 465.500 C 238 466.325, 237.550 467, 237 467 C 236.450 467, 236 467.900, 236 469 C 236 470.111, 235.333 471, 234.500 471 C 233.370 471, 233 472.213, 233 475.917 C 233 478.872, 232.501 481.066, 231.750 481.417 C 230.750 481.883, 230.750 482.117, 231.750 482.583 C 233.236 483.277, 233.435 486, 232 486 C 231.450 486, 231 488.475, 231 491.500 C 231 495.722, 230.652 497, 229.500 497 C 228.194 497, 228 501.778, 228 534 C 228 566.222, 228.194 571, 229.500 571 C 230.325 571, 231 571.450, 231 572 C 231 572.646, 242.333 573, 263 573 C 283.667 573, 295 573.354, 295 574 C 295 574.618, 300.202 575, 308.607 575 C 320.604 575, 322.142 574.813, 321.607 573.418 C 321.273 572.548, 321 570.073, 321 567.918 C 321 565.102, 320.578 564, 319.500 564 C 318.675 564, 318 563.325, 318 562.500 C 318 561.675, 318.675 561, 319.500 561 C 320.325 561, 321 560.550, 321 560 C 321 559.450, 320.325 559, 319.500 559 C 318.452 559, 318 557.944, 318 555.500 C 318 553.056, 318.452 552, 319.500 552 C 320.325 552, 321 551.325, 321 550.500 C 321 549.675, 320.325 549, 319.500 549 C 318.667 549, 318 548.111, 318 547 C 318 545.889, 318.667 545, 319.500 545 C 320.433 545, 321 544.056, 321 542.500 C 321 540.944, 320.433 540, 319.500 540 C 318.675 540, 318 539.550, 318 539 C 318 538.450, 318.621 538, 319.379 538 C 320.455 538, 320.918 534.807, 321.483 523.500 C 322.053 512.104, 322.507 509, 323.604 509 C 324.592 509, 325 507.684, 325 504.500 C 325 501.167, 325.389 500, 326.500 500 C 327.652 500, 328 498.722, 328 494.500 C 328 491.475, 328.450 489, 329 489 C 329.550 489, 330 486.750, 330 484 C 330 481.250, 330.450 479, 331 479 C 331.550 479, 332 477.875, 332 476.500 C 332 474.944, 332.567 474, 333.500 474 C 334.548 474, 335 472.944, 335 470.500 C 335 468.575, 335.450 467, 336 467 C 336.550 467, 337 465.425, 337 463.500 C 337 461.056, 337.452 460, 338.500 460 C 339.433 460, 340 459.056, 340 457.500 C 340 456.125, 340.450 455, 341 455 C 341.550 455, 342 453.875, 342 452.500 C 342 451.125, 342.450 450, 343 450 C 343.550 450, 344 448.875, 344 447.500 C 344 445.944, 344.567 445, 345.500 445 C 346.412 445, 347 444.069, 347 442.625 C 347 438.120, 348.254 434, 349.625 434 C 350.381 434, 351 433.325, 351 432.500 C 351 431.675, 351.675 431, 352.500 431 C 353.333 431, 354 430.111, 354 429 C 354 427.889, 353.333 427, 352.500 427 C 351.675 427, 351 426.325, 351 425.500 C 351 424.667, 350.111 424, 349 424 C 347.900 424, 347 423.550, 347 423 C 347 422.450, 346.325 422, 345.500 422 C 344.675 422, 344 421.383, 344 420.629 C 344 419.696, 342.085 419.042, 338 418.580 C 333.737 418.097, 332 417.481, 332 416.450 C 332 415.653, 331.100 415, 330 415 C 328.900 415, 328 414.383, 328 413.629 C 328 412.739, 326.246 412.025, 323 411.594 C 319.576 411.140, 318 410.469, 318 409.466 C 318 408.660, 317.100 408, 316 408 C 314.889 408, 314 407.333, 314 406.500 C 314 405.417, 312.889 405, 310 405 C 307.800 405, 306 404.550, 306 404 C 306 403.450, 305.100 403, 304 403 C 302.900 403, 302 402.550, 302 402 C 302 401.450, 300.650 401, 299 401 C 297 401, 296 400.500, 296 399.500 C 296 398.500, 295 398, 293 398 C 291.350 398, 290 397.550, 290 397 C 290 396.450, 288.875 396, 287.500 396 C 285.944 396, 285 395.433, 285 394.500 C 285 393.389, 283.833 393, 280.500 393 C 277.167 393, 276 393.389, 276 394.500 M 422 470 C 422 470.550, 421.367 471, 420.594 471 C 419.665 471, 418.954 472.697, 418.500 476 C 418.046 479.303, 417.335 481, 416.406 481 C 415.573 481, 415 482.019, 415 483.500 C 415 484.875, 414.550 486, 414 486 C 413.450 486, 413 488.025, 413 490.500 C 413 493.833, 412.611 495, 411.500 495 C 410.367 495, 410 496.222, 410 500 C 410 502.750, 409.550 505, 409 505 C 408.450 505, 408 505.900, 408 507 C 408 508.667, 407.333 509, 404 509 C 401.800 509, 400 508.550, 400 508 C 400 507.450, 397.525 507, 394.500 507 C 391.475 507, 389 506.550, 389 506 C 389 505.450, 386.975 505, 384.500 505 C 381.167 505, 380 504.611, 380 503.500 C 380 502.333, 378.667 502, 374 502 C 370.667 502, 368 501.556, 368 501 C 368 500.450, 365.750 500, 363 500 C 359.222 500, 358 499.633, 358 498.500 C 358 497.348, 356.722 497, 352.500 497 C 349.475 497, 347 496.550, 347 496 C 347 495.444, 344.333 495, 341 495 C 335.267 495, 335 495.111, 335 497.500 C 335 499.056, 334.433 500, 333.500 500 C 332.336 500, 332 501.324, 332 505.917 C 332 509.713, 331.552 512.015, 330.750 512.341 C 329.806 512.723, 329.867 513.130, 331 514 C 332.133 514.870, 332.194 515.277, 331.250 515.659 C 330.448 515.985, 330 518.287, 330 522.083 C 330 525.361, 329.554 528, 329 528 C 328.363 528, 328 536.167, 328 550.500 C 328 564.833, 328.363 573, 329 573 C 329.550 573, 330 574.125, 330 575.500 C 330 577.929, 330.200 578, 337 578 C 342.556 578, 344 577.690, 344 576.500 C 344 575.310, 345.444 575, 351 575 C 355 575, 358 574.571, 358 574 C 358 573.422, 361.167 573, 365.500 573 C 369.833 573, 373 572.578, 373 572 C 373 571.450, 375.025 571, 377.500 571 C 380.833 571, 382 570.611, 382 569.500 C 382 568.367, 383.222 568, 387 568 C 389.750 568, 392 567.550, 392 567 C 392 566.397, 396.167 566, 402.500 566 C 408.833 566, 413 566.397, 413 567 C 413 567.550, 414.350 568, 416 568 C 417.650 568, 419 567.550, 419 567 C 419 566.450, 421.250 566, 424 566 C 426.750 566, 429 565.550, 429 565 C 429 564.450, 429.675 564, 430.500 564 C 431.325 564, 432 563.424, 432 562.721 C 432 562.017, 432.900 560.793, 434 560 C 435.777 558.719, 436 557.411, 436 548.279 C 436 542.093, 435.602 538, 435 538 C 434.450 538, 434 536.875, 434 535.500 C 434 534.125, 434.450 533, 435 533 C 435.588 533, 436 529.500, 436 524.500 C 436 517.611, 436.284 516, 437.500 516 C 438.548 516, 439 514.944, 439 512.500 C 439 510.575, 439.450 509, 440 509 C 440.550 509, 441 507.425, 441 505.500 C 441 503.056, 441.452 502, 442.500 502 C 443.386 502, 444.005 501.078, 444.011 499.750 C 444.017 498.512, 444.305 495.787, 444.651 493.693 C 445.200 490.372, 445.007 489.815, 443.140 489.326 C 441.963 489.019, 441 488.144, 441 487.383 C 441 486.623, 440.550 486, 440 486 C 439.450 486, 439 485.325, 439 484.500 C 439 483.675, 438.530 483, 437.955 483 C 437.380 483, 435.805 481.895, 434.455 480.545 C 433.105 479.195, 432 477.620, 432 477.045 C 432 476.470, 431.325 476, 430.500 476 C 429.675 476, 429 475.550, 429 475 C 429 474.450, 428.374 474, 427.608 474 C 426.843 474, 425.934 472.875, 425.589 471.500 C 424.994 469.129, 422 467.878, 422 470 M 698 527 C 698 527.609, 693.500 528, 686.500 528 L 675 528 675 541 C 675 551.889, 674.756 554, 673.500 554 C 672.367 554, 672 555.222, 672 559 C 672 561.750, 671.550 564, 671 564 C 670.450 564, 670 566.025, 670 568.500 C 670 570.975, 669.550 573, 669 573 C 668.450 573, 668 574.125, 668 575.500 C 668 576.875, 667.550 578, 667 578 C 666.450 578, 666 579.575, 666 581.500 C 666 583.944, 665.548 585, 664.500 585 C 663.675 585, 663 585.450, 663 586 C 663 586.550, 663.675 587, 664.500 587 C 665.325 587, 666 587.482, 666 588.071 C 666 589.665, 668.633 592, 670.429 592 C 671.293 592, 672 592.450, 672 593 C 672 593.550, 672.675 594, 673.500 594 C 674.325 594, 675 594.470, 675 595.045 C 675 596.403, 679.597 601, 680.955 601 C 681.530 601, 682 601.675, 682 602.500 C 682 603.325, 682.666 604, 683.481 604 C 684.295 604, 685.244 605.125, 685.589 606.500 C 685.934 607.875, 686.843 609, 687.608 609 C 688.374 609, 689 609.450, 689 610 C 689 610.550, 690.382 611, 692.071 611 C 695.135 611, 698 612.898, 698 614.929 C 698 615.518, 699.125 616, 700.500 616 C 702.056 616, 703 615.433, 703 614.500 C 703 613.675, 703.450 613, 704 613 C 704.550 613, 705 612.100, 705 611 C 705 609.889, 705.667 609, 706.500 609 C 707.433 609, 708 608.056, 708 606.500 C 708 605.058, 708.576 604, 709.361 604 C 710.714 604, 711.972 597.426, 711.991 590.250 C 711.997 588.032, 712.476 587, 713.500 587 C 714.611 587, 715 585.833, 715 582.500 C 715 579.167, 715.389 578, 716.500 578 C 717.325 578, 718 577.325, 718 576.500 C 718 575.675, 718.450 575, 719 575 C 719.550 575, 720 575.675, 720 576.500 C 720 577.325, 720.450 578, 721 578 C 721.550 578, 722 577.325, 722 576.500 C 722 575.675, 722.450 575, 723 575 C 723.550 575, 724 575.675, 724 576.500 C 724 577.633, 725.222 578, 729 578 C 731.750 578, 734 578.450, 734 579 C 734 579.556, 736.667 580, 740 580 C 744.667 580, 746 580.333, 746 581.500 C 746 582.611, 747.167 583, 750.500 583 C 752.975 583, 755 583.450, 755 584 C 755 584.556, 757.667 585, 761 585 C 764.333 585, 767 585.444, 767 586 C 767 586.550, 769.025 587, 771.500 587 C 774.833 587, 776 587.389, 776 588.500 C 776 589.679, 777.389 590, 782.500 590 C 786.167 590, 789 590.436, 789 591 C 789 591.550, 791.025 592, 793.500 592 L 798 592 798 579 C 798 571, 798.385 566, 799 566 C 800.706 566, 800.300 536.158, 798.571 534.429 C 797.543 533.400, 794.600 533, 788.071 533 C 782.690 533, 779 532.593, 779 532 C 779 531.404, 775.167 531, 769.500 531 C 761.722 531, 760 530.728, 760 529.500 C 760 528.217, 757.111 528, 740 528 C 727.333 528, 720 527.633, 720 527 C 720 526.450, 718.875 526, 717.500 526 C 716.125 526, 715 526.450, 715 527 C 715 527.550, 714.325 528, 713.500 528 C 712.675 528, 712 527.550, 712 527 C 712 525.545, 705.273 525.772, 704.583 527.250 C 704.117 528.250, 703.883 528.250, 703.417 527.250 C 702.726 525.769, 698 525.551, 698 527 M 819 539 C 819 539.550, 818.325 540, 817.500 540 C 816.389 540, 816 541.167, 816 544.500 C 816 547.833, 816.389 549, 817.500 549 C 818.325 549, 819 549.675, 819 550.500 C 819 551.325, 818.325 552, 817.500 552 C 816.567 552, 816 552.944, 816 554.500 C 816 556.056, 816.567 557, 817.500 557 C 818.333 557, 819 557.889, 819 559 C 819 560.111, 818.333 561, 817.500 561 C 816.264 561, 815.974 562.982, 815.852 572.250 C 815.771 578.438, 815.612 584.175, 815.500 585 C 815.388 585.825, 815.229 589.313, 815.148 592.750 C 815.034 597.573, 814.658 599, 813.500 599 C 812.367 599, 812 600.222, 812 604 C 812 607.778, 811.633 609, 810.500 609 C 809.667 609, 809 609.889, 809 611 C 809 612.100, 808.550 613, 808 613 C 807.450 613, 807 615.250, 807 618 C 807 620.750, 806.550 623, 806 623 C 805.450 623, 805 625.025, 805 627.500 C 805 630.833, 804.611 632, 803.500 632 C 802.452 632, 802 633.056, 802 635.500 C 802 637.425, 801.550 639, 801 639 C 800.450 639, 800 640.575, 800 642.500 C 800 644.425, 799.550 646, 799 646 C 798.450 646, 798 647.125, 798 648.500 C 798 650.056, 797.433 651, 796.500 651 C 795.567 651, 795 651.944, 795 653.500 C 795 654.875, 794.550 656, 794 656 C 793.450 656, 793 657.125, 793 658.500 C 793 659.955, 792.425 661, 791.625 661 C 790.254 661, 789 665.120, 789 669.625 C 789 671.069, 788.412 672, 787.500 672 C 786.567 672, 786 672.944, 786 674.500 C 786 676.056, 785.433 677, 784.500 677 C 783.567 677, 783 677.944, 783 679.500 C 783 680.875, 782.550 682, 782 682 C 781.450 682, 781 683.350, 781 685 C 781 686.650, 780.550 688, 780 688 C 779.450 688, 779 688.675, 779 689.500 C 779 690.325, 778.325 691, 777.500 691 C 776.675 691, 776 691.675, 776 692.500 C 776 693.325, 776.675 694, 777.500 694 C 778.333 694, 779 694.889, 779 696 C 779 697.100, 779.450 698, 780 698 C 780.550 698, 781 698.482, 781 699.071 C 781 700.456, 783.544 703, 784.929 703 C 785.518 703, 786 703.450, 786 704 C 786 704.550, 786.626 705, 787.392 705 C 788.157 705, 789.066 706.125, 789.411 707.500 C 789.869 709.326, 790.707 710, 792.519 710 C 793.972 710, 795 710.577, 795 711.392 C 795 712.157, 796.125 713.066, 797.500 713.411 C 798.875 713.756, 800 714.705, 800 715.519 C 800 716.334, 800.450 717, 801 717 C 801.550 717, 802 717.675, 802 718.500 C 802 719.325, 802.470 720, 803.045 720 C 804.403 720, 809 724.597, 809 725.955 C 809 726.530, 809.675 727, 810.500 727 C 811.325 727, 812 727.450, 812 728 C 812 728.550, 812.666 729, 813.481 729 C 814.295 729, 815.244 730.125, 815.589 731.500 C 815.934 732.875, 816.650 734, 817.180 734 C 818.426 734, 821 736.574, 821 737.820 C 821 738.350, 822.125 739.066, 823.500 739.411 C 824.875 739.756, 826 740.705, 826 741.519 C 826 742.334, 826.450 743, 827 743 C 827.550 743, 828 743.675, 828 744.500 C 828 745.433, 828.944 746, 830.500 746 C 832.056 746, 833 745.433, 833 744.500 C 833 743.675, 833.450 743, 834 743 C 834.550 743, 835 742.325, 835 741.500 C 835 740.675, 835.675 740, 836.500 740 C 837.333 740, 838 739.111, 838 738 C 838 736.900, 838.666 736, 839.481 736 C 840.295 736, 841.244 734.875, 841.589 733.500 C 841.934 732.125, 842.843 731, 843.608 731 C 844.374 731, 845 730.100, 845 729 C 845 727.900, 845.450 727, 846 727 C 846.550 727, 847 725.875, 847 724.500 C 847 723.125, 847.482 722, 848.071 722 C 849.980 722, 852 719.208, 852 716.571 C 852 715.157, 852.450 714, 853 714 C 853.550 714, 854 713.100, 854 712 C 854 710.900, 854.482 710, 855.071 710 C 856.836 710, 859 707.285, 859 705.071 C 859 703.932, 859.450 703, 860 703 C 860.550 703, 861 701.875, 861 700.500 C 861 698.944, 861.567 698, 862.500 698 C 863.333 698, 864 697.111, 864 696 C 864 694.900, 864.631 694, 865.402 694 C 866.371 694, 867.018 692.149, 867.500 688 C 867.982 683.851, 868.629 682, 869.598 682 C 870.427 682, 871 680.978, 871 679.500 C 871 678.125, 871.450 677, 872 677 C 872.550 677, 873 675.425, 873 673.500 C 873 671.056, 873.452 670, 874.500 670 C 875.433 670, 876 669.056, 876 667.500 C 876 666.125, 876.450 665, 877 665 C 877.550 665, 878 662.975, 878 660.500 C 878 658.025, 878.450 656, 879 656 C 879.550 656, 880 654.875, 880 653.500 C 880 651.944, 880.567 651, 881.500 651 C 882.611 651, 883 649.833, 883 646.500 C 883 644.025, 883.450 642, 884 642 C 884.550 642, 885 640.425, 885 638.500 C 885 636.575, 885.450 635, 886 635 C 886.556 635, 887 632.333, 887 629 C 887 624.333, 887.333 623, 888.500 623 C 889.633 623, 890 621.778, 890 618 C 890 615.250, 890.450 613, 891 613 C 891.550 613, 892 612.100, 892 611 C 892 609.267, 892.667 609, 897 609 C 901.667 609, 902 608.833, 902 606.500 C 902 605.125, 902.450 604, 903 604 C 903.571 604, 904 601, 904 597 C 904 593, 904.429 590, 905 590 C 905.637 590, 906 581.833, 906 567.500 L 906 545 900 545 C 895.333 545, 894 544.667, 894 543.500 C 894 542.224, 891.389 542, 876.500 542 C 865.500 542, 859 541.629, 859 541 C 859 540.385, 854 540, 846 540 C 838 540, 833 539.615, 833 539 C 833 538.429, 830 538, 826 538 C 822 538, 819 538.429, 819 539 M 656 602.500 C 656 603.325, 655.518 604, 654.929 604 C 653.763 604, 651 606.462, 651 607.500 C 651 607.854, 650.357 608.786, 649.571 609.571 C 648.786 610.357, 647.854 611, 647.500 611 C 646.679 611, 644 613.659, 644 614.474 C 644 615.509, 639.161 620, 638.045 620 C 637.470 620, 637 620.675, 637 621.500 C 637 622.325, 636.355 623, 635.567 623 C 634.779 623, 633.849 623.900, 633.500 625 C 633.151 626.100, 632.221 627, 631.433 627 C 630.645 627, 630 627.675, 630 628.500 C 630 629.325, 629.518 630, 628.929 630 C 627.763 630, 625 632.462, 625 633.500 C 625 634.538, 622.237 637, 621.071 637 C 620.482 637, 620 637.450, 620 638 C 620 638.550, 619.100 639, 618 639 C 616.585 639, 616 639.667, 616 641.279 C 616 642.533, 616.900 644.207, 618 645 C 619.100 645.793, 620 647.017, 620 647.721 C 620 648.424, 620.470 649, 621.045 649 C 621.620 649, 623.195 650.105, 624.545 651.455 C 625.895 652.805, 627 654.380, 627 654.955 C 627 655.530, 627.675 656, 628.500 656 C 629.325 656, 630 656.450, 630 657 C 630 657.550, 630.626 658, 631.392 658 C 632.157 658, 633.066 659.125, 633.411 660.500 C 633.756 661.875, 634.705 663, 635.519 663 C 636.334 663, 637 663.450, 637 664 C 637 664.550, 637.675 665, 638.500 665 C 639.325 665, 640 665.494, 640 666.099 C 640 666.703, 641.350 668.459, 643 670 C 644.650 671.541, 646 673.297, 646 673.901 C 646 674.506, 646.470 675, 647.045 675 C 648.403 675, 653 679.597, 653 680.955 C 653 681.530, 653.675 682, 654.500 682 C 655.325 682, 656 682.450, 656 683 C 656 683.550, 656.623 684, 657.383 684 C 658.144 684, 659.002 684.900, 659.290 686 C 659.577 687.100, 660.530 688, 661.406 688 C 662.283 688, 663 688.675, 663 689.500 C 663 690.325, 663.675 691, 664.500 691 C 665.325 691, 666 691.494, 666 692.099 C 666 692.703, 667.350 694.459, 669 696 C 670.650 697.541, 672 699.297, 672 699.901 C 672 700.506, 672.470 701, 673.045 701 C 674.403 701, 679 705.597, 679 706.955 C 679 707.530, 679.675 708, 680.500 708 C 681.325 708, 682 708.450, 682 709 C 682 709.550, 682.675 710, 683.500 710 C 684.325 710, 685 710.717, 685 711.594 C 685 712.470, 685.900 713.423, 687 713.710 C 688.100 713.998, 689 714.856, 689 715.617 C 689 716.377, 689.675 717, 690.500 717 C 691.325 717, 692 717.494, 692 718.099 C 692 718.703, 693.350 720.459, 695 722 C 696.650 723.541, 698 725.297, 698 725.901 C 698 726.506, 698.470 727, 699.045 727 C 700.403 727, 705 731.597, 705 732.955 C 705 733.530, 705.675 734, 706.500 734 C 707.325 734, 708 734.450, 708 735 C 708 735.550, 708.623 736, 709.383 736 C 710.144 736, 711.002 736.900, 711.290 738 C 711.577 739.100, 712.530 740, 713.406 740 C 714.283 740, 715 740.675, 715 741.500 C 715 742.325, 715.675 743, 716.500 743 C 717.325 743, 718 743.494, 718 744.099 C 718 744.703, 719.350 746.459, 721 748 C 722.650 749.541, 724 751.297, 724 751.901 C 724 752.506, 724.494 753, 725.099 753 C 725.703 753, 727.459 754.350, 729 756 C 730.541 757.650, 732.297 759, 732.901 759 C 733.506 759, 734 759.675, 734 760.500 C 734 761.325, 734.623 762, 735.383 762 C 736.144 762, 737.002 762.900, 737.290 764 C 737.577 765.100, 738.530 766, 739.406 766 C 740.283 766, 741 766.675, 741 767.500 C 741 768.325, 741.450 769, 742 769 C 742.550 769, 743 769.675, 743 770.500 C 743 771.325, 743.470 772, 744.045 772 C 745.403 772, 750 776.597, 750 777.955 C 750 778.530, 750.494 779, 751.099 779 C 751.703 779, 753.459 780.350, 755 782 C 756.541 783.650, 758.297 785, 758.901 785 C 759.506 785, 760 785.675, 760 786.500 C 760 787.325, 760.675 788, 761.500 788 C 762.325 788, 763 788.717, 763 789.594 C 763 790.470, 763.900 791.423, 765 791.710 C 766.100 791.998, 767 792.856, 767 793.617 C 767 794.377, 767.450 795, 768 795 C 768.550 795, 769 795.675, 769 796.500 C 769 797.325, 769.494 798, 770.099 798 C 770.703 798, 772.459 799.350, 774 801 C 775.541 802.650, 777.297 804, 777.901 804 C 778.506 804, 779 804.470, 779 805.045 C 779 806.403, 783.597 811, 784.955 811 C 785.530 811, 786 811.675, 786 812.500 C 786 813.325, 786.675 814, 787.500 814 C 788.325 814, 789 814.717, 789 815.594 C 789 816.470, 789.900 817.423, 791 817.710 C 792.100 817.998, 793 818.856, 793 819.617 C 793 820.377, 793.450 821, 794 821 C 794.550 821, 795 821.675, 795 822.500 C 795 823.325, 795.494 824, 796.099 824 C 796.703 824, 798.459 825.350, 800 827 C 801.541 828.650, 803.297 830, 803.901 830 C 804.506 830, 805 830.470, 805 831.045 C 805 832.403, 809.597 837, 810.955 837 C 811.530 837, 812 837.675, 812 838.500 C 812 839.325, 812.675 840, 813.500 840 C 814.325 840, 815 840.717, 815 841.594 C 815 842.470, 815.900 843.423, 817 843.710 C 818.100 843.998, 819 844.856, 819 845.617 C 819 846.377, 819.450 847, 820 847 C 820.550 847, 821 848.125, 821 849.500 C 821 851.056, 821.567 852, 822.500 852 C 823.505 852, 824 853.005, 824 855.045 C 824 856.946, 824.923 859.014, 826.455 860.545 C 827.986 862.077, 830.054 863, 831.955 863 C 833.995 863, 835 863.495, 835 864.500 C 835 865.487, 835.987 866, 837.883 866 C 839.926 866, 840.919 866.583, 841.290 868 C 841.745 869.740, 842.654 870, 848.281 870 C 856.630 870, 861 869.098, 861 867.375 C 861 866.619, 861.675 866, 862.500 866 C 863.325 866, 864 865.325, 864 864.500 C 864 863.675, 864.645 863, 865.433 863 C 866.221 863, 867.151 862.100, 867.500 861 C 867.849 859.900, 868.779 859, 869.567 859 C 870.355 859, 871 858.518, 871 857.929 C 871 856.778, 873.456 854, 874.474 854 C 875.509 854, 880 849.161, 880 848.045 C 880 847.470, 880.675 847, 881.500 847 C 882.333 847, 883 846.111, 883 845 C 883 843.900, 883.450 843, 884 843 C 884.564 843, 885 840.167, 885 836.500 C 885 832.833, 884.564 830, 884 830 C 883.450 830, 883 829.100, 883 828 C 883 826.889, 882.333 826, 881.500 826 C 880.421 826, 880 824.896, 880 822.067 C 880 819.013, 879.553 817.993, 878 817.500 C 876.900 817.151, 876 816.221, 876 815.433 C 876 814.645, 875.325 814, 874.500 814 C 873.675 814, 873 813.518, 873 812.929 C 873 810.898, 870.135 809, 867.071 809 C 865.382 809, 864 808.550, 864 808 C 864 807.450, 863.325 807, 862.500 807 C 861.675 807, 861 806.530, 861 805.955 C 861 804.839, 856.509 800, 855.474 800 C 854.456 800, 852 797.222, 852 796.071 C 852 795.482, 851.550 795, 851 795 C 850.450 795, 850 794.374, 850 793.608 C 850 792.843, 848.875 791.934, 847.500 791.589 C 846.125 791.244, 845 790.295, 845 789.481 C 845 788.666, 844.374 788, 843.608 788 C 842.843 788, 841.934 786.875, 841.589 785.500 C 841.244 784.125, 840.295 783, 839.481 783 C 838.666 783, 838 782.550, 838 782 C 838 781.450, 837.518 781, 836.929 781 C 835.763 781, 833 778.538, 833 777.500 C 833 777.146, 832.357 776.214, 831.571 775.429 C 830.786 774.643, 829.854 774, 829.500 774 C 828.462 774, 826 771.237, 826 770.071 C 826 769.482, 825.550 769, 825 769 C 824.450 769, 824 768.374, 824 767.608 C 824 766.843, 822.875 765.934, 821.500 765.589 C 819.533 765.096, 819 764.327, 819 761.981 C 819 760.060, 818.490 759, 817.567 759 C 816.779 759, 815.849 758.100, 815.500 757 C 815.151 755.900, 814.221 755, 813.433 755 C 812.645 755, 812 754.550, 812 754 C 812 753.450, 811.325 753, 810.500 753 C 809.675 753, 809 752.530, 809 751.955 C 809 751.380, 807.895 749.805, 806.545 748.455 C 805.195 747.105, 803.620 746, 803.045 746 C 802.470 746, 802 745.325, 802 744.500 C 802 743.675, 801.550 743, 801 743 C 800.450 743, 800 742.334, 800 741.519 C 800 740.705, 798.875 739.756, 797.500 739.411 C 796.125 739.066, 795 738.350, 795 737.820 C 795 737.291, 794.357 736.214, 793.571 735.429 C 792.786 734.643, 791.709 734, 791.180 734 C 790.650 734, 789.934 732.875, 789.589 731.500 C 789.244 730.125, 788.295 729, 787.481 729 C 786.666 729, 786 728.550, 786 728 C 786 727.450, 785.325 727, 784.500 727 C 783.675 727, 783 726.325, 783 725.500 C 783 724.675, 782.550 724, 782 724 C 781.450 724, 781 723.100, 781 722 C 781 720.900, 780.550 720, 780 720 C 779.450 720, 779 719.325, 779 718.500 C 779 717.675, 778.325 717, 777.500 717 C 776.675 717, 776 716.355, 776 715.567 C 776 714.779, 775.100 713.849, 774 713.500 C 772.900 713.151, 772 712.221, 772 711.433 C 772 710.645, 771.518 710, 770.929 710 C 769.544 710, 767 707.456, 767 706.071 C 767 705.482, 766.355 705, 765.567 705 C 764.779 705, 763.849 704.100, 763.500 703 C 763.151 701.900, 762.221 701, 761.433 701 C 760.645 701, 760 700.325, 760 699.500 C 760 698.675, 759.424 698, 758.721 698 C 758.017 698, 756.793 697.100, 756 696 C 755.207 694.900, 753.533 694, 752.279 694 C 750.920 694, 750 693.395, 750 692.500 C 750 691.675, 749.550 691, 749 691 C 748.450 691, 748 690.325, 748 689.500 C 748 688.675, 747.550 688, 747 688 C 746.450 688, 746 687.100, 746 686 C 746 684.900, 745.518 684, 744.929 684 C 744.339 684, 743.214 683.357, 742.429 682.571 C 741.643 681.786, 741 680.661, 741 680.071 C 741 679.482, 740.355 679, 739.567 679 C 738.779 679, 737.849 678.100, 737.500 677 C 737.151 675.900, 736.221 675, 735.433 675 C 734.645 675, 734 674.325, 734 673.500 C 734 672.675, 733.530 672, 732.955 672 C 732.380 672, 730.805 670.895, 729.455 669.545 C 728.105 668.195, 727 666.620, 727 666.045 C 727 665.470, 726.530 665, 725.955 665 C 725.380 665, 723.805 663.895, 722.455 662.545 C 721.105 661.195, 720 659.620, 720 659.045 C 720 658.470, 718.875 658, 717.500 658 C 716.125 658, 715 657.550, 715 657 C 715 656.450, 714.325 656, 713.500 656 C 712.675 656, 712 655.325, 712 654.500 C 712 653.667, 711.111 653, 710 653 C 708.900 653, 708 652.550, 708 652 C 708 651.450, 707.518 651, 706.929 651 C 705.763 651, 703 648.538, 703 647.500 C 703 647.146, 702.357 646.214, 701.571 645.429 C 700.786 644.643, 699.854 644, 699.500 644 C 698.679 644, 696 641.341, 696 640.526 C 696 639.491, 691.161 635, 690.045 635 C 689.470 635, 689 634.325, 689 633.500 C 689 632.675, 688.334 632, 687.519 632 C 686.705 632, 685.756 630.875, 685.411 629.500 C 685.066 628.125, 684.157 627, 683.392 627 C 682.626 627, 682 626.550, 682 626 C 682 625.450, 681.518 625, 680.929 625 C 679.763 625, 677 622.538, 677 621.500 C 677 621.146, 676.357 620.214, 675.571 619.429 C 674.786 618.643, 673.854 618, 673.500 618 C 672.679 618, 670 615.341, 670 614.526 C 670 613.491, 665.161 609, 664.045 609 C 663.470 609, 663 608.325, 663 607.500 C 663 606.675, 662.334 606, 661.519 606 C 660.705 606, 659.756 604.875, 659.411 603.500 C 658.737 600.815, 656 600.013, 656 602.500 M 590 652 C 590 652.550, 588.200 653, 586 653 C 583.111 653, 582 653.417, 582 654.500 C 582 655.333, 581.111 656, 580 656 C 578.900 656, 578 656.450, 578 657 C 578 657.550, 575.975 658, 573.500 658 C 570.167 658, 569 658.389, 569 659.500 C 569 660.679, 567.611 661, 562.500 661 C 558.833 661, 556 661.436, 556 662 C 556 662.593, 552.333 663, 547 663 C 541.667 663, 538 663.407, 538 664 C 538 664.550, 536.875 665, 535.500 665 C 533.310 665, 533 665.433, 533 668.500 C 533 670.944, 532.548 672, 531.500 672 C 530.222 672, 530 674.667, 530 690 C 530 705.333, 530.222 708, 531.500 708 C 532.756 708, 533 710.111, 533 721 C 533 731.889, 533.244 734, 534.500 734 C 535.500 734, 536 735, 536 737 C 536 738.650, 536.450 740, 537 740 C 537.550 740, 538 741.800, 538 744 C 538 746.200, 538.450 748, 539 748 C 539.550 748, 540 749.575, 540 751.500 C 540 753.944, 540.452 755, 541.500 755 C 542.633 755, 543 756.222, 543 760 C 543 762.750, 543.450 765, 544 765 C 544.550 765, 545 767.475, 545 770.500 C 545 774.463, 545.379 776, 546.356 776 C 547.311 776, 547.911 778.133, 548.381 783.191 C 548.749 787.147, 549.306 790.634, 549.620 790.941 C 550.262 791.570, 607.183 791.150, 607.821 790.512 C 608.046 790.287, 607.903 783.780, 607.503 776.052 C 606.935 765.084, 606.471 762, 605.388 762 C 604.410 762, 604 760.671, 604 757.500 C 604 754.167, 603.611 753, 602.500 753 C 601.403 753, 600.998 751.858, 600.993 748.750 C 600.977 739.403, 599.729 731, 598.355 731 C 597.379 731, 597 729.461, 597 725.500 C 597 721.278, 596.652 720, 595.500 720 C 594.367 720, 594 718.778, 594 715 C 594 712.250, 593.550 710, 593 710 C 592.444 710, 592 707.333, 592 704 L 592 698 596.500 698 C 598.975 698, 601 697.550, 601 697 C 601 696.450, 603.250 696, 606 696 C 608.750 696, 611 695.550, 611 695 C 611 694.450, 612.575 694, 614.500 694 C 616.944 694, 618 693.548, 618 692.500 C 618 691.452, 619.056 691, 621.500 691 C 623.800 691, 625 690.529, 625 689.628 C 625 688.800, 626.587 688.002, 629 687.616 C 632.424 687.069, 633 686.618, 633 684.488 C 633 682.943, 632.431 682, 631.500 682 C 630.675 682, 630 681.325, 630 680.500 C 630 679.675, 629.530 679, 628.955 679 C 627.597 679, 623 674.403, 623 673.045 C 623 672.470, 622.530 672, 621.955 672 C 621.380 672, 619.805 670.895, 618.455 669.545 C 617.105 668.195, 616 666.620, 616 666.045 C 616 665.470, 615.550 665, 615 665 C 614.450 665, 614 664.100, 614 663 C 614 661.889, 613.333 661, 612.500 661 C 611.675 661, 611 660.325, 611 659.500 C 611 658.675, 610.334 658, 609.519 658 C 608.705 658, 607.756 656.875, 607.411 655.500 C 607.066 654.125, 606.157 653, 605.392 653 C 604.626 653, 604 652.550, 604 652 C 604 651.429, 601 651, 597 651 C 593 651, 590 651.429, 590 652 M 705 760.500 C 705 761.325, 704.550 762, 704 762 C 703.450 762, 703 762.624, 703 763.386 C 703 764.263, 701.345 765.021, 698.500 765.448 C 695.565 765.888, 694 766.623, 694 767.561 C 694 768.429, 693.008 769, 691.500 769 C 689.944 769, 689 769.567, 689 770.500 C 689 771.333, 688.111 772, 687 772 C 685.900 772, 685 772.450, 685 773 C 685 773.550, 683.650 774, 682 774 C 680.350 774, 679 774.450, 679 775 C 679 775.550, 678.100 776, 677 776 C 675.889 776, 675 776.667, 675 777.500 C 675 778.548, 673.944 779, 671.500 779 C 669.575 779, 668 779.450, 668 780 C 668 780.550, 666.875 781, 665.500 781 C 664.125 781, 663 781.450, 663 782 C 663 782.550, 662.100 783, 661 783 C 659.900 783, 659 783.450, 659 784 C 659 784.550, 657.200 785, 655 785 C 652.111 785, 651 785.417, 651 786.500 C 651 787.548, 649.944 788, 647.500 788 C 645.215 788, 644 788.472, 644 789.361 C 644 790.714, 637.426 791.972, 630.250 791.991 C 628.032 791.997, 627 792.476, 627 793.500 C 627 794.333, 626.111 795, 625 795 C 623.889 795, 623 795.667, 623 796.500 C 623 797.611, 621.833 798, 618.500 798 C 616.025 798, 614 798.450, 614 799 C 614 799.550, 613.325 800, 612.500 800 C 611.675 800, 611 799.550, 611 799 C 611 798.450, 610.100 798, 609 798 C 607.900 798, 607 798.450, 607 799 C 607 799.606, 602.667 800, 596 800 C 589.333 800, 585 800.394, 585 801 C 585 801.550, 582.525 802, 579.500 802 C 576.475 802, 574 801.550, 574 801 C 574 799.565, 571.277 799.764, 570.583 801.250 C 570.117 802.250, 569.883 802.250, 569.417 801.250 C 569.031 800.423, 566.441 800, 561.760 800 L 554.687 800 555.340 815.750 C 555.699 824.413, 555.995 844.438, 555.997 860.250 C 556 885.137, 556.202 889, 557.500 889 C 558.325 889, 559 888.550, 559 888 C 559 887.444, 561.667 887, 565 887 C 568.333 887, 571 887.444, 571 888 C 571 888.550, 571.675 889, 572.500 889 C 573.325 889, 574 888.550, 574 888 C 574 887.450, 574.900 887, 576 887 C 577.100 887, 578 887.450, 578 888 C 578 888.550, 578.675 889, 579.500 889 C 580.325 889, 581 888.550, 581 888 C 581 887.385, 586 887, 594 887 C 602 887, 607 886.615, 607 886 C 607 885.436, 609.833 885, 613.500 885 C 618.611 885, 620 884.679, 620 883.500 C 620 882.567, 620.944 882, 622.500 882 C 624.624 882, 625 881.538, 625 878.929 C 625 874.640, 627.055 873, 632.429 873 C 635.825 873, 637 872.615, 637 871.500 C 637 870.403, 638.143 869.998, 641.250 869.991 C 649.335 869.975, 656 868.786, 656 867.361 C 656 866.472, 657.215 866, 659.500 866 C 661.944 866, 663 865.548, 663 864.500 C 663 863.389, 664.167 863, 667.500 863 C 669.975 863, 672 862.550, 672 862 C 672 861.450, 673.125 861, 674.500 861 C 675.875 861, 677 860.550, 677 860 C 677 859.450, 678.800 859, 681 859 C 683.889 859, 685 858.583, 685 857.500 C 685 856.452, 686.056 856, 688.500 856 C 690.425 856, 692 855.550, 692 855 C 692 854.450, 692.900 854, 694 854 C 695.100 854, 696 853.550, 696 853 C 696 852.450, 697.125 852, 698.500 852 C 699.875 852, 701 851.550, 701 851 C 701 850.450, 702.575 850, 704.500 850 C 706.944 850, 708 849.548, 708 848.500 C 708 847.667, 708.889 847, 710 847 C 711.100 847, 712 846.369, 712 845.598 C 712 844.629, 713.851 843.982, 718 843.500 C 722.149 843.018, 724 842.371, 724 841.402 C 724 840.631, 724.675 840, 725.500 840 C 726.325 840, 727 839.518, 727 838.929 C 727 837.164, 729.715 835, 731.929 835 C 733.068 835, 734 834.550, 734 834 C 734 833.450, 734.675 833, 735.500 833 C 736.325 833, 737 832.325, 737 831.500 C 737 830.500, 738 830, 740 830 C 741.650 830, 743 829.550, 743 829 C 743 828.450, 743.675 828, 744.500 828 C 745.325 828, 746 827.550, 746 827 C 746 826.450, 746.900 826, 748 826 C 749.100 826, 750 825.550, 750 825 C 750 824.450, 750.675 824, 751.500 824 C 752.325 824, 753 823.325, 753 822.500 C 753 821.675, 753.450 821, 754 821 C 754.550 821, 755 820.325, 755 819.500 C 755 818.567, 755.944 818, 757.500 818 C 759.690 818, 760 817.567, 760 814.500 C 760 812.575, 759.530 811, 758.955 811 C 758.380 811, 756.805 809.895, 755.455 808.545 C 754.105 807.195, 753 805.620, 753 805.045 C 753 804.470, 752.506 804, 751.901 804 C 751.297 804, 749.541 802.650, 748 801 C 746.459 799.350, 744.703 798, 744.099 798 C 743.494 798, 743 797.325, 743 796.500 C 743 795.675, 742.550 795, 742 795 C 741.450 795, 741 794.377, 741 793.617 C 741 792.856, 740.100 791.998, 739 791.710 C 737.900 791.423, 737 790.470, 737 789.594 C 737 788.717, 736.325 788, 735.500 788 C 734.675 788, 734 787.325, 734 786.500 C 734 785.675, 733.506 785, 732.901 785 C 732.297 785, 730.541 783.650, 729 782 C 727.459 780.350, 725.703 779, 725.099 779 C 724.494 779, 724 778.506, 724 777.901 C 724 777.297, 722.650 775.541, 721 774 C 719.350 772.459, 718 770.703, 718 770.099 C 718 769.494, 717.325 769, 716.500 769 C 715.675 769, 715 768.325, 715 767.500 C 715 766.675, 714.283 766, 713.406 766 C 712.530 766, 711.577 765.100, 711.290 764 C 711.002 762.900, 710.144 762, 709.383 762 C 708.623 762, 708 761.325, 708 760.500 C 708 759.675, 707.325 759, 706.500 759 C 705.675 759, 705 759.675, 705 760.500" stroke="none" fill="#111111" fill-rule="evenodd"/>
</svg>