<?xml version="1.0" encoding="UTF-8" standalone="no"?>
<!-- Uploaded to: SVG Repo, www.svgrepo.com, Generator: SVG Repo Mixer Tools -->

<svg
   width="800"
   height="800"
   viewBox="0 0 24 24"
   fill="none"
   version="1.1"
   id="svg1"
   sodipodi:docname="book-svgrepo-com.svg"
   xmlns:inkscape="http://www.inkscape.org/namespaces/inkscape"
   xmlns:sodipodi="http://sodipodi.sourceforge.net/DTD/sodipodi-0.dtd"
   xmlns="http://www.w3.org/2000/svg"
   xmlns:svg="http://www.w3.org/2000/svg">
  <defs
     id="defs1" />
  <sodipodi:namedview
     id="namedview1"
     pagecolor="#ffffff"
     bordercolor="#000000"
     borderopacity="0.25"
     inkscape:showpageshadow="2"
     inkscape:pageopacity="0.0"
     inkscape:pagecheckerboard="0"
     inkscape:deskcolor="#d1d1d1"
     showgrid="false">
    <inkscape:grid
       id="grid1"
       units="px"
       originx="0"
       originy="0"
       spacingx="0.03"
       spacingy="0.03"
       empcolor="#0099e5"
       empopacity="0.30196078"
       color="#0099e5"
       opacity="0.14901961"
       empspacing="5"
       enabled="true"
       visible="false" />
    <inkscape:page
       x="0"
       y="0"
       width="24"
       height="24"
       id="page2"
       margin="0"
       bleed="0" />
  </sodipodi:namedview>
  <g
     id="g2">
    <path
       d="M 4,19 V 6.2 C 4,5.0799 4,4.51984 4.21799,4.09202 4.40973,3.71569 4.71569,3.40973 5.09202,3.21799 5.51984,3 6.0799,3 7.2,3 h 9.6 c 1.1201,0 1.6802,0 2.108,0.21799 0.3763,0.19174 0.6823,0.4977 0.874,0.87403 C 20,4.51984 20,5.0799 20,6.2 V 17 H 6 c -1.10457,0 -2,0.8954 -2,2 z m 0,0 c 0,1.1046 0.89543,2 2,2 h 14 m -1,-4 v 4"
       stroke="#000000"
       stroke-width="2"
       stroke-linecap="round"
       stroke-linejoin="round"
       id="path1"
       sodipodi:nodetypes="csccssccscsccsccc" />
  </g>
  <g
     id="g1"
     transform="translate(0.02973978,-0.15026022)">
    <g
       id="g10"
       transform="matrix(0.02073654,0,0,0.02073654,6.7475444,4.8649141)">
	<path
   class="st0"
   d="m 255.999,211.985 c 37.626,-18.9 63.912,-61.844 63.912,-111.832 0,-33.478 -11.803,-63.797 -30.9,-85.857 -2.084,-2.411 -8.258,-4.256 -12.188,3.393 -3.93,7.656 -14.752,26.883 -14.752,26.883 -1.315,2.39 -3.61,3.842 -6.072,3.842 -2.47,0 -4.766,-1.453 -6.072,-3.842 0,0 -10.83,-19.227 -14.76,-26.883 -3.923,-7.649 -10.096,-5.804 -12.181,-3.393 -19.096,22.06 -30.9,52.379 -30.9,85.857 0,49.989 26.279,92.932 63.913,111.832 z"
   id="path1-7"
   style="fill:#000000" />

	<path
   class="st0"
   d="m 199.03,253.373 c -6.342,-41.628 -39.064,-79.9 -86.605,-95.35 -31.844,-10.337 -64.32,-8.484 -91.203,2.862 -2.942,1.242 -6.595,6.537 -0.53,12.639 6.065,6.101 21,22.336 21,22.336 1.866,1.99 2.542,4.627 1.779,6.966 -0.762,2.347 -2.855,4.083 -5.535,4.591 0,0 -21.631,4.359 -30.116,5.724 -8.498,1.373 -8.644,7.809 -7.002,10.547 15.08,24.972 40.27,45.572 72.107,55.916 47.541,15.442 96.505,3.71 126.105,-26.231 z"
   id="path2"
   style="fill:#000000" />

	<path
   class="st0"
   d="m 103.352,373.246 c -19.677,27.08 -27.95,58.553 -25.466,87.622 0.276,3.181 4.176,8.302 11.854,4.417 7.678,-3.886 27.732,-13.075 27.732,-13.075 2.47,-1.169 5.172,-0.988 7.177,0.458 1.99,1.46 3,3.98 2.651,6.682 0,0 -2.542,21.915 -3.864,30.413 -1.315,8.506 4.765,10.634 7.866,9.908 28.416,-6.617 55.792,-24.203 75.462,-51.289 29.382,-40.437 33.355,-90.636 14.019,-128.044 -41.54,-6.828 -88.057,12.464 -117.431,52.908 z"
   id="path3"
   style="fill:#000000" />

	<path
   class="st0"
   d="m 291.206,320.338 c -19.337,37.408 -15.356,87.607 14.026,128.044 19.678,27.086 47.047,44.672 75.462,51.289 3.109,0.727 9.189,-1.402 7.859,-9.908 -1.314,-8.498 -3.864,-30.413 -3.864,-30.413 -0.334,-2.702 0.669,-5.23 2.658,-6.682 2.006,-1.446 4.708,-1.627 7.177,-0.458 0,0 20.055,9.189 27.74,13.068 7.67,3.893 11.578,-1.228 11.846,-4.409 2.478,-29.069 -5.782,-60.542 -25.466,-87.622 -29.381,-40.445 -75.89,-59.737 -117.438,-52.909 z"
   id="path4"
   style="fill:#000000" />

	<path
   class="st0"
   d="m 504.177,213.14 c -8.491,-1.365 -30.122,-5.724 -30.122,-5.724 -2.673,-0.508 -4.766,-2.244 -5.52,-4.591 -0.763,-2.353 -0.102,-4.975 1.772,-6.966 0,0 14.934,-16.234 21.006,-22.336 6.065,-6.102 2.397,-11.397 -0.545,-12.639 -26.868,-11.346 -59.358,-13.205 -91.202,-2.862 -47.534,15.45 -80.256,53.722 -86.598,95.35 29.6,29.941 78.572,41.672 126.105,26.23 31.844,-10.344 57.027,-30.944 72.107,-55.924 1.648,-2.729 1.495,-9.165 -7.003,-10.538 z"
   id="path5"
   style="fill:#000000" />

	<path
   class="st0"
   d="m 255.991,287.999 c -8.259,0 -14.956,6.697 -14.956,14.963 0,8.259 6.698,14.956 14.956,14.956 8.266,0 14.956,-6.697 14.956,-14.956 0,-8.265 -6.69,-14.963 -14.956,-14.963 z"
   id="path6"
   style="fill:#000000" />

	<path
   class="st0"
   d="m 284.567,293.069 c 7.859,2.55 16.3,-1.743 18.849,-9.602 2.556,-7.859 -1.743,-16.3 -9.603,-18.856 -7.859,-2.55 -16.292,1.75 -18.849,9.603 -2.55,7.858 1.743,16.306 9.603,18.855 z"
   id="path7"
   style="fill:#000000" />

	<path
   class="st0"
   d="m 264.417,231.023 c -4.859,6.683 -3.378,16.038 3.304,20.89 6.683,4.86 16.039,3.378 20.898,-3.305 4.852,-6.682 3.37,-16.038 -3.312,-20.898 -6.682,-4.851 -16.038,-3.377 -20.89,3.313 z"
   id="path8"
   style="fill:#000000" />

	<path
   class="st0"
   d="m 226.689,227.711 c -6.69,4.86 -8.164,14.208 -3.312,20.898 4.859,6.682 14.216,8.165 20.898,3.305 6.682,-4.852 8.172,-14.208 3.305,-20.89 -4.845,-6.691 -14.208,-8.165 -20.891,-3.313 z"
   id="path9"
   style="fill:#000000" />

	<path
   class="st0"
   d="m 218.176,264.611 c -7.852,2.557 -12.152,10.997 -9.602,18.856 2.55,7.86 10.99,12.152 18.842,9.602 7.859,-2.556 12.166,-10.997 9.61,-18.856 -2.55,-7.86 -10.99,-12.152 -18.85,-9.602 z"
   id="path10"
   style="fill:#000000" />

</g>
  </g>
</svg>
