<svg xmlns="http://www.w3.org/2000/svg" width="512" height="512" viewBox="850 300 3300 3400">
  <!-- Extracted from C:/Users/test/Desktop/双色.svg: yellow center flower/leaf paths only, text removed. -->
  <g fill="currentColor" fill-rule="evenodd">
    <path d="M3568,2640c-14.39-16.46-56.78-62.73-125-112-101.01-72.96-194.98-103.66-281-131-25.16-8-143.26-44.71-308-60-104.09-9.66-192.84-7.61-259-3-24.47,19.37-46.73,23.76-58,25-32.85,3.62-60.95-9.67-87-22-12.37-5.85-22.21-11.68-29-16-4.7,2.52-12.3,7.39-19,16-8.64,11.1-11.15,22.43-12,28,20.89,7.19,50.05,19.53,81,41,34.84,24.17,55.91,48.8,71.33,67.07,10.77,12.76,51.76,62.77,83.67,139.93,16.72,40.42,15.11,49.99,32,75,19.8,29.31,41.94,45.68,71.02,67.17,49.38,36.5,92.77,53.85,102.98,57.83,13.23,5.15,48.43,18.09,97,25,21.7,3.09,66.2,7.84,207-12,96.9-13.66,92.86-18.31,142-21,27.2-1.49,85.64-3.2,159,8,31.35,4.79,71.41,11.11,122,29,31.92,11.29,72.07,25.53,117,57,30.1,21.09,52.19,42.73,67,59-29.63-88.03-65.26-156.23-94-204-18.61-30.93-41.98-69.37-81-114Z"/>
    <path d="M2191,2544c-14.21,2.69-27.47,5.2-42,0-20.25-7.25-30.47-24.99-34-32-68.14,48.34-115.86,98.95-147,137-29.06,35.51-73.94,91.27-107,177-29.75,77.13-35.49,141.1-37,163-2.26,32.85-5.73,90.59,14,161,18.96,67.64,47.77,105.74,55,115,18.91,24.21,35.06,44.91,64,56,21.11,8.09,34.42,5.48,68,16,21.8,6.83,38.86,15.04,50,21-4.17-129.01,12.05-228.96,27-295,24.84-109.71,53.93-159.97,85-289,24.73-102.72,34.55-188.18,39-242-7.91,4.04-19.81,9.12-35,12Z"/>
    <path d="M2560,2610c-21.99-54.11-41.15-99.67-89-139-38.36-31.54-78.54-45.4-105-52-7.93,15.85-22.04,39.33-46,62-22.58,21.37-45.28,33.87-61,41-.7,67.63-7.22,124.39-14,167-10.04,63.09-23.11,110.5-33,146-23.48,84.23-30.85,84.77-51,154-6.95,23.88-33.99,119.73-44,248-4.59,58.82-4.38,108.81-3,146,10.83,12.5,26.91,32.18,44,58,26.33,39.78,32.04,59.38,50,88,30.91,49.25,68.72,78.43,84,90,54.95,41.62,112.93,58.13,154,65-31.58-96.72-22.73-167.71-13-208,9.78-40.48,27.23-78.05,56-140,30.53-65.72,36.05-65.72,55-110,30.47-71.2,41.7-131.42,50-176,6.83-36.68,16.53-90.18,17-160,.99-146.27-39.27-251.14-51-280Z"/>
    <path d="M3701.24,2478.85c-17.39-42.45-30.29-73.93-55.24-109.85-12.08-17.39-58.28-80.86-172-143-136.76-74.73-263.51-88.71-336-96-167.2-16.81-294.63,12.21-344,28-46.57,14.9-93,36-93,36-29.57,13.44-54.44,26.74-74,38,2.07,8.67,4.03,21.11,3,36-.84,12.25-3.45,22.45-6,30,27.81-.77,64.66-1.2,108,0,71.77,1.98,125.76,7.44,170,12,67.07,6.91,112.43,11.59,172,23,49.41,9.46,106.27,20.36,177,46,107.58,39,181.18,88.18,237,126,64.9,43.97,92.65,71.57,100,79,44.98,45.47,70.48,88.14,91,123,35.97,61.1,55.08,112.8,74,164,14.22,38.48,24.34,71.08,31,94,1.05-111.55-10.63-204.09-23-272-21.59-118.54-50.71-192.05-59.76-214.15Z"/>
    <path d="M3916,1551c-33.17-39.07-71.76-56.47-111-72-46.46-18.39-84.43-24.5-107-28-14.94-2.31-63.52-9.2-128-5-12.4.81-25.75,2.05-48,5-78.25,10.38-141.88,25.39-165,31-58.86,14.28-143.12,34.72-251,77-42.39,16.61-109.98,43.39-193,90,0,0-91.87,51.58-179.17,120.03-15.35,12.04-23.79,19.54-23.79,19.54-10.55,9.39-13.1,12.69-23.34,21.18-9.38,7.78-9.67,7.01-19.71,15.24-5.46,4.47-14.13,11.63-24.09,21.94-5.29,5.47-11.89,12.82-18.91,22.06,8.19,9.65,25.86,33.46,24,64-.81,13.31-5.07,23.54-9,33-9.09,21.86-21.28,35.75-34,50-11.64,13.04-24.94,27.93-46,42-14.71,9.82-41.89,27.97-80,31-11.78.94-72.52,5.76-103-35-19.23-25.72-18.43-55.21-18-66,1.65-41.41,25.38-69.65,45-93,14.24-16.94,38.31-44.6,80-61,18.63-7.33,58.7-23.16,97-5,13.78,6.54,23.25,15.53,29,22,13.12-12.34,31.14-28.93,53-48,20.19-17.62,75.14-64.8,151-119,69.4-49.58,158.4-113.16,288-174,117.09-54.97,207.21-79.48,228-85,56.48-15,105.32-23.71,142-29-6.21-10.04-15.17-23.66-27-39-11.02-14.29-35.39-45.56-69-72-50.8-39.96-102.23-52.81-147-64-27.19-6.79-56.14-13.81-95-13-39.97.84-70.33,9.54-91,16-149.95,46.89-232.11,72.58-330,142-99.23,70.37-159.82,146.82-221,224-32.24,40.67-57,76.32-74,102,4.61,12.01,10.48,31.19,11,55,.14,6.28-.41,13.26-1.7,21.88-10.99,73.49-71.3,171.53-96.3,179.12-1.42.43-7.1,2.11-12,7-5.7,5.7-6.63,13.55-7,18-7.2,85.57,3,140,3,140,4.63,24.74,11.31,56.39,21,93,1.37-10.17,7.29-44.39,37-71,28.44-25.47,60.92-28.08,75-29,32.27-2.11,56.1,8.07,77,17,17.94,7.66,46.43,22.52,75,51,56.11-26.66,104.81-45.71,142-59,39.31-14.04,71.66-25.46,117-35,34.58-7.28,59.97-9.93,100-14,97.15-9.87,102.77-2.72,155-11,38.81-6.15,89.88-14.25,143-45,50.36-29.16,78.41-64.69,115-112,57.95-74.93,47.8-91.67,114-182,51.45-70.21,84.22-96.45,114-114,24.56-14.48,52.61-31.01,92-34,71.23-5.41,136.13,36.76,172,85,41.42,55.7,41.81,116.4,42,147,.32,49.78-13.19,84.91-16,92-10.93,27.62-25.29,47.96-36,61,14.54-6.2,35.16-17.06,55-36,40.46-38.63,50.74-85.15,58-118,1.75-7.91,23.51-113.19-28-213-6.85-13.28-11.96-23.18-22-35Z"/>
    <path d="M1874,2217c-35.16-16.11-85.81-35.66-149-48-148.01-28.9-266.22,1.02-319,15-115.7,30.64-189.24,79.33-205,90-22.42,15.18-55.66,37.98-91,77-59.87,66.09-84.01,132.58-90,150-7.49,21.79-36.9,113.26-14,216,8.8,39.5,15.75,70.68,42,95,12.53,11.61,27.54,19.87,46,42,14.05,16.84,22.79,32.94,28,44,11.46-25.75,28.79-61.13,53.66-100.88,88.46-141.43,197.78-219.19,249.04-254.88,158.09-110.08,316.02-148.68,410.6-163.81-5.37-12.64-14.31-38.68-10.3-71.44,6.3-51.36,39.93-82.19,49-90Z"/>
    <path d="M2094,2397c-4.98-6.47-9.98-13.13-15-20-5.92-8.11-11.59-16.12-17-24-9.2,13.87-24.43,33.1-48,50-19.41,13.91-59.97,42.99-107,32-23.21-5.42-40.44-18.84-52-31-25.78,5.33-60.2,13.49-100,26-40.77,12.82-122.11,41.19-224,101-113.15,66.43-223.71,131.33-307,261-39.46,61.43-60.93,118.92-73,159,10.13,27.93,15.23,51.17,18,67,5.36,30.57,3.98,44.47,10,72,5.9,26.99,14.72,47.92,21,61,26.51,2.58,62.87,9.11,103,26,55.37,23.3,93.18,55.9,115,78-13.14-18.19-32.07-49.76-40-93-2.46-13.41-13.62-81.12,24-150,20.57-37.66,47.13-59.94,63-73,27.9-22.96,52.85-34.54,78-46,59.48-27.11,73.48-20.55,128-43,18.29-7.53,64.57-26.95,108-63,44.09-36.59,38.11-51.19,89-112,35.86-42.85,45.61-43.7,163-154,26.93-25.31,48.78-46.27,63-60-3-4.87-8.13-14.66-9-28-1.17-17.92,6.04-31.16,9-36Z"/>
    <path d="M2103,1960c-47.19-86.57-100.49-143.49-125-168-14.16-14.15-25.44-24.1-48-44-39.43-34.78-82.74-72.96-142-113-21.64-14.62-97.12-64.42-204.12-107.83-32.53-13.2-58.47-21.99-79.88-29.17-59.61-20.01-99.49-29.85-170-48-175.74-45.23-199.73-54.01-228-67-72.61-33.37-103.26-62.3-114-73-41.84-41.65-63.12-86.82-74-116-3.04,83.65,1.09,206.76,39,349,22.74,85.29,41.73,156.55,93,236,137.23,212.66,367.95,280.58,428,288,40.86,5.05,105.84,7.31,210,25,0,0,72.1,12.25,162,47,25.85,9.99,38.77,14.99,47,23,5.66,5.51,10.42,11.96,18,12,7.68.04,9.87-6.54,23-16,16.9-12.17,25.71-10.21,28-18,1.24-4.22-.75-6.82-11-26-12.5-23.4-12.07-24.29-15-26-10.6-6.17-19.31,3.75-48,6-12.08.95-22.36,1.75-33-3-14.51-6.48-21.66-19.71-26-28-48.84-93.3-55.62-108.43-65-139-12.56-40.93-12.35-52.76-8-64,7.84-20.26,26.25-31.12,43-41,15.54-9.17,37.17-21.74,65.8-19.71,36.44,2.58,60.07,27.18,70.2,37.71,19.47,20.26,26.21,39.8,38,74,15.28,44.29,33.41,95.68,12,126-3.03,4.29-9.51,11.84-10,23-.17,3.89.18,13.08,17,37,11.01,15.65,16.51,23.47,22,27,18.98,12.2,39.81,1.2,77.03-4.43,17.04-2.58,41.46-4.63,71.97-1.57-18.46-66.32-42.96-119.4-64-158Z"/>
    <path d="M2251,2030c1.62-21.85,4.51-41.93,8-60-11.91-5.39-30.97-15.82-49-35-23.14-24.61-31.8-50.03-34-57-2.6-8.22-9.49-32.73,1-93,4.77-27.42,13.75-65.73,32-110-12.09-23.55-28.32-51.43-49.89-81.11-9.27-12.75-30.76-41.31-63.11-73.89-11.58-11.66-52.02-51.5-116-93-67.54-43.81-125.17-66.04-162-80-43.22-16.39-117.35-43.96-216-55-100.43-11.24-191.78-1.49-290,9-34.07,3.64-53.05,5.09-91,8-68.43,5.24-81.52,4.5-88,4-25.98-2-64.81-9.23-111-35,10.44,8.86,26.68,21.74,48,35,39.2,24.38,73.33,35.92,140,58,63.81,21.14,95.71,31.71,100,33,191.14,57.69,286.71,86.53,385,133,45.17,21.35,108.3,51.59,183,106,85.61,62.36,140.05,122.7,157,142,87.87,100.04,130.96,192.95,143,220,20.29,45.6,33.04,85.42,41,114,.42,1.01,4.47,10.34,15,13,10.25,2.59,18.07-3.28,19-4-3.2-27.83-4.75-60.94-2-98Z"/>
    <path d="M2590,378c-50.29,15.06-156.55,47.53-274,114-78.96,44.69-118.44,67.03-160,110-93.96,97.14-120.44,210.24-131,258-21.25,96.12-12.72,175.31-8,216,3,25.85,7.67,64.41,23,113,22.39,70.98,54.63,122.48,81,164,35.52,55.94,47.94,62.57,77,117,17.63,33.02,30.19,62.67,39,97,6.72,26.2,9.63,48.76,11,65,19.75-6.53,36.73-9.52,49-11,23.32-2.82,35.79-4.33,51,1,13.92,4.88,29.35,15.22,32,17,4.66,3.13,8.4,5.95,11,8-36.42-143.61-52.95-266.91-61-359-10.63-121.68-26.43-320.08,33-501,22.5-68.49,55-133,55-133,19.36-38.43,48.66-95.76,101-159,31.82-38.45,81.32-90.16,153-139-20.26,4.81-48.57,11.99-82,22Z"/>
    <path d="M2833,780c-22.08-55.1-28.06-52.99-57-116-33.58-73.1-59.21-130.29-62-204-1.58-41.81,4.67-76.09,10-98-24.42,16.84-57.64,41.6-94,75-35.76,32.85-105.03,97.53-161,201-29.96,55.39-46.78,104.63-56,132-5.02,14.91-16.5,50.22-27,97-4.38,19.53-16.38,75.7-22,151-4.49,60.17-2.85,104.83-1,155,.67,18.16,2.68,65.5,9,127,7.23,70.3,16.38,123.01,22,155,6.29,35.83,14.99,80.6,27,132,35.38-41.98,67.22-77.26,93.27-105.19,0,0,53.75-58.28,102.73-103.81,17.92-16.66,38.55-35.84,68-60,52.47-43.05,58.83-41.11,82-65,34.65-35.73,51.74-72.34,63-97,20.31-44.5,27.14-81.27,33-114,6.02-33.64,12.59-70.36,9-118-4.24-56.34-20.4-97.6-39-144Z"/>
    <path d="M2300,1680c7.46-.71,21.55-1.87,37,5,27.13,12.07,36.63,39.24,39,46,7.29,20.85,4.25,38.33,1,57-3,17.21-11.66,35.47-29,72-5.99,12.63-9.61,19.38-17,26-14.19,12.71-31.17,14.96-39,16-9.6,1.27-25.43,3.37-41-5-3.14-1.69-14.86-8.42-25-28-22.97-44.35-6.91-94.92,2-123,9.61-30.27,19.1-40.41,24-45,18.27-17.11,40.36-20.28,48-21Z"/>
    <path d="M2549,2011c-10.92,8.75-39.37,31.53-78,29-10.34-.68-41.43-2.71-56-26-9.78-15.63-7.55-33.55-7-38,1.67-13.45,7.25-22.59,13-32,8.9-14.57,18.31-23.31,30-34,14.97-13.7,26-23.79,44-31,9.59-3.84,19.97-8.01,34-7,22.5,1.61,37.37,15.31,42,20,4.72,4.78,16.32,17.95,19,38,3.24,24.29-8.73,42.77-16,54-1.92,2.96-9.83,14.85-25,27Z"/>
    <path d="M1898,1859c-4.33-2.49-13.52-7.65-26-8-7.51-.21-16.67,3.52-35,11-13.52,5.51-19.94,9.14-26,15-3.1,3-5.92,5.73-8,10-5.17,10.61-1.52,22,2,33,15.12,47.28,14.03,44.44,15,47,15.86,41.72,20.24,47.65,24,52,6.62,7.66,16.24,18.78,32,22,15.13,3.09,28.01-2.7,42-9,11.67-5.25,19.93-8.97,27-18,10.87-13.87,10.96-30.08,11-38,.02-2.75-.08-11.03-6-31-5.45-18.42-11.89-39.5-28-62-11.76-16.43-20.25-21.84-24-24Z"/>
    <path d="M2474,2161c11.3,1.95,34.18,6.15,58,23,13.62,9.64,24.83,17.57,32,33,1.76,3.78,14.83,33.23-2,61-.73,1.21-15.93,25.42-44,29-10.68,1.36-18.39-.88-32-5-16.08-4.87-40.1-12.15-61-34-10.44-10.92-24.95-26.09-25-48-.04-16.08,7.72-27.97,11-33,3.07-4.7,14.32-21.94,35-27,9-2.2,15.76-1.11,28,1Z"/>
    <path d="M2242,2313c12.63-4.54,20.14-5.05,25-5,21.95.24,37.03,12.49,40,15,1.5,1.27,16.4,14.17,21,34,10.46,45.09-39.76,93.91-74,111-18.48,9.22-37.35,11.75-47,13-12.32,1.59-17.92.91-23-1-12.36-4.64-18.55-15.31-23-23-3.48-6.01-14.86-26.35-10-52,2.97-15.64,10.36-25.14,22-40,28.63-36.55,60.81-49.05,69-52Z"/>
    <path d="M1954,2203c6.64-5.34,17.77-13.65,34-17,6.72-1.39,18.16-3.6,31,1,17.32,6.2,25.75,20.7,30,28,10.27,17.65,10.29,34.73,10,41-.22,4.7-1.28,17.73-16,44-14.02,25.01-22.65,40.41-41,54-7.42,5.5-43.93,32.54-78,19-16.01-6.37-25.58-19.35-29-24-1.51-2.05-13.11-18.18-15-39-4.01-44.24,38.66-78.57,74-107Z"/>
    <path d="M2273,2243c-1.51-6.71-4.7-17.16-12-28,0,0-9.02-13.39-25-24-21.35-14.17-69.45-22.68-130-16-.42,4.04-.56,10.02,1,17,1.7,7.59,4.74,13.3,7,16.86,4.11,2.78,10.91,6.9,20,10.14,13.4,4.77,20.47,3.58,36,8,2.43.69,5.72,1.71,23,9,10.09,4.26,24.11,10.3,41,18,6.95-2.01,13.95-4.01,21-6,6.03-1.7,12.03-3.36,18-5Z"/>
    <path d="M2184,2280c-7.21-3.85-16.61-7.99-28-11-16.9-4.46-31.66-4.69-42-4,3.87,8.66,9.83,19.65,19,31,7.26,8.99,14.66,15.88,21,21,7.28-6.16,13.54-10.83,18-14,10.76-7.66,17.22-11.06,17-16-.14-3.05-2.77-5.45-5-7Z"/>
  </g>
</svg>
